<?xml version="1.0" encoding="utf-8"?>
<!-- Generator: Adobe Illustrator 19.0.0, SVG Export Plug-In . SVG Version: 6.00 Build 0)  -->
<svg version="1.1" id="Layer_1" xmlns="http://www.w3.org/2000/svg" xmlns:xlink="http://www.w3.org/1999/xlink" x="0px" y="0px"
	 viewBox="0 0 270 250" enable-background="new 0 0 270 250" xml:space="preserve">
<g id="XMLID_2_">
	<defs>
		<circle id="XMLID_1_" cx="128.5" cy="123.4" r="116.5"/>
	</defs>
	<clipPath id="XMLID_5_">
		<use xlink:href="#XMLID_1_"  overflow="visible"/>
	</clipPath>
	<circle id="XMLID_27_" clip-path="url(#XMLID_5_)" fill="#A4C639" cx="128.5" cy="123.4" r="116.5"/>
</g>
<g id="XMLID_3_">
	<path id="XMLID_55_" fill="#FFFFFF" d="M172.2,49.7c1.9,0.4,3.8,0.7,5.7,1.2c6,1.5,11.3,4.3,16.1,8.3c5.5,4.6,8.5,10.7,10.5,17.4
		c1.5,5.1,1.7,10.5,1.2,15.7c-0.6,7.7-2.8,15-6.4,22c-2.6,5.1-5.6,10-9.4,14.3c-2.5,2.8-4.9,5.7-7.7,8.2c-5,4.7-10.4,8.6-16.5,11.9
		c-5.4,2.9-11,5-17,6.4c-5.2,1.2-10.5,1.5-15.9,1.3c-2.4-0.1-4.9-0.9-7.3-0.8c-6.2,0.2-12.4,0.7-18.4,2.7c-3.3,1-6.3,2.6-8.7,5.3
		c-1.7,1.9-3.5,3.6-5.3,5.3c-0.5,0.5-0.5,0.8-0.2,1.5c1.4,2.8,1,4.5-1.2,6.8c-7,7-14.1,13.9-20.9,21c-2.7,2.8-4.9,2.5-7.8,1.3
		c-3.8-1.6-6.2-4.4-7.5-8.3c-0.1-0.2-0.2-0.4-0.3-0.6c0-1.4,0-2.7,0-4.1c0.5-0.5,0.9-1.1,1.4-1.6c7.2-7.2,14.6-14.4,21.7-21.8
		c2-2.1,5.6-2.7,8-0.4c2.6-2.7,5.5-5.2,7.6-8.2c1.6-2.2,2.5-5.1,3.2-7.8c1.3-4.7,1.5-9.6,1.9-14.4c0.5-5.2-1.2-10.2-0.7-15.4
		c0.3-3.1,0.7-6.3,1-9.2c4.5,0.6,8.7,1.2,12.9,1.8c-0.2,2.2-0.7,4.8-0.6,7.3c0.1,5.9,1,11.6,4.4,16.7c3.1,4.8,7.7,7.8,13.2,9.2
		c6.7,1.7,13.4,1.1,20-0.7c6.7-1.8,12.8-4.9,18.3-9c7.4-5.5,13.5-12.1,18.1-20.1c3.2-5.5,5.5-11.4,6.7-17.7c1.3-7.1,1-14.1-2.4-20.6
		c-3.2-6.1-8.4-9.8-15.1-11.3c-7.7-1.7-15.2-0.9-22.5,2.1c-2.1,0.9-4.1,2-6.1,3.1c-1.6-3.9-3.3-7.8-5-12c1.4-0.7,3.1-1.5,4.8-2.2
		c4.7-1.9,9.5-3.2,14.5-4.1c0.7-0.1,1.4-0.2,2.1-0.3C165.7,49.7,168.9,49.7,172.2,49.7z M110.3,147.9c-0.9-0.9-1.9-1.9-2.8-2.9
		c-0.2,1-0.4,2.2-0.7,3.6C108.3,148.3,109.5,148,110.3,147.9z"/>
	<path id="XMLID_54_" fill="#FFFFFF" d="M125.2,49.7c2.8,1,5.8,1.7,8.4,3.1c8.1,4.4,13.1,11.2,14.9,20.3c0.2,1,0.3,2.1,0.3,3.1
		c0,0.3-0.1,0.7-0.1,0.9c-3.9,0-7.4-1.1-10.8-2.9c-7.5-4-13.2-9.7-15.8-18c-0.6-2.1-0.7-4.3-1-6.5C122.5,49.7,123.9,49.7,125.2,49.7
		z"/>
	<path id="XMLID_53_" fill="#FFFFFF" d="M91.7,74.2c1.4-13.9,15.3-23.8,23.4-23.7c0.9,8.8,5.5,15.6,11.5,21.7
		c6.1,6.1,13.1,10.4,22.1,10.5c-1.9,14.9-14.9,23.4-24,23.9C121.7,88.5,108.9,75.7,91.7,74.2z"/>
	<path id="XMLID_52_" fill="#FFFFFF" d="M118.4,107.2c-14.5,0.9-28-14-27.4-27.3C104.3,78.7,118.6,94.4,118.4,107.2z"/>
</g>
</svg>
