<?xml version="1.0" encoding="utf-8"?>
<!-- Generator: Adobe Illustrator 19.0.0, SVG Export Plug-In . SVG Version: 6.00 Build 0)  -->
<svg version="1.1" id="Layer_1" xmlns="http://www.w3.org/2000/svg" xmlns:xlink="http://www.w3.org/1999/xlink" x="0px" y="0px"
	 viewBox="0 0 270 250" enable-background="new 0 0 270 250" xml:space="preserve">
<g id="XMLID_2_">
	<defs>
		<circle id="XMLID_1_" cx="128.5" cy="123.4" r="116.5"/>
	</defs>
	<clipPath id="XMLID_4_">
		<use xlink:href="#XMLID_1_"  overflow="visible"/>
	</clipPath>
	<circle id="XMLID_27_" clip-path="url(#XMLID_4_)" fill="#A4C639" cx="128.5" cy="123.4" r="116.5"/>
	<path id="XMLID_79_" clip-path="url(#XMLID_4_)" fill="#FFFFFF" d="M203.8,190c3-0.6,5.4-1.2,8.8-1.9c-1.8,6.7-3.2,11.7-4.3,15.9
		c2.8,1.8,5.3,3.3,7.7,4.9c-0.4,0.7-0.7,1.4-1.1,2.1c-57.3,0-114.6,0-172,0c-2.6-7.3,3.8-4.5,6.6-6.1c-1.3-4.9-2.6-9.9-4.5-16.9
		c3.6,0.9,6.1,1.4,10.3,2.4c4.4-4.8,10.4-10.6,15.5-17c18-22.6,35.8-45.5,53.7-68.2c1.3-1.7,2.8-3.2,4.5-5.2
		c16.1,20.5,32.1,40.7,49.1,62.4c0.8-10.5,1.4-19,2.1-28.7c-6.2,0-11.8,0-18.7,0c5.1-10.3,9.5-19.3,14.2-28.9
		c-4.9-0.2-8.9-0.4-13.8-0.6c5.1-10.5,10-20.4,15.1-30.8c-3.1-0.3-5.6-0.5-9.4-0.8c7.2-14.5,14.2-28.4,21.9-43.9
		c7.6,15.3,14.7,29.3,22,43.9c-3.4,0.3-5.9,0.5-9.5,0.8c5,10.3,9.8,20.1,15.1,30.7c-4.6,0.3-8.7,0.5-13.7,0.8
		c4.7,9.6,9.1,18.6,14.1,28.7c-6.8,0-12.4,0-18.7,0C200.4,153.3,202.1,171.8,203.8,190z M188.8,205.4c1.9-11.3,0.4-20.4-7.3-29.3
		c-15.4-17.9-29.5-37-44.1-55.6c-1.2-1.6-2.7-3-4.8-5.4c0,30.9,0,60.5,0,90.3C151.6,205.4,170,205.4,188.8,205.4z M193.3,98.8
		c5.1,0,9.1,0,14.1,0c-5.3-10.8-10.2-20.7-15.2-31.1c3.5-0.4,6-0.7,9.3-1c-4.1-8.2-7.8-15.7-12.1-24.3c-4.4,8.9-8.2,16.4-12.1,24.4
		c3.8,0.4,6.3,0.7,9.3,1.1c-5.1,10.4-10,20.3-15.1,30.8c4.9,0.2,9,0.4,13.7,0.7c-4.6,9.5-8.9,18.5-13.8,28.6c6,0,10.4,0,15.3,0
		c-0.7,10.6-0.2,20.7-2.3,30.3c-2.6,12.2,4.4,18.6,12.8,27.5c-1.8-20.5-3.5-38.9-5.2-58.1c5.4,0,9.8,0,15.4,0
		C202.6,117.8,198.3,109,193.3,98.8z M109.8,136c-0.4-0.2-0.8-0.4-1.2-0.7c-11,14-21.3,28.5-33.1,41.7c-7.9,8.8-7.6,18-6.6,28.1
		c10.2,0,20,0,30.2,0c-2.7-9.3-9.6-10.9-18-11.2C90.8,174.3,100.3,155.2,109.8,136z M120,132.5c-0.5-0.2-1-0.3-1.4-0.5
		c-9.3,18.7-18.7,37.4-27.7,55.5c5.1,4.1,9.3,7.5,14,11.3C110,176.4,115,154.5,120,132.5z M62.3,193.1c-3.6,2.1-8.3,2.4-7.3,8.3
		c0.8,4.4,3.2,5.2,7.3,3.5C62.3,201.2,62.3,197.5,62.3,193.1z M195.2,207.7c3.5-2.7,6.3-3.8,7.1-5.8c2.4-5.8-3.3-6.4-6.8-9.8
		c-0.2,2.6-0.3,3.9-0.3,5.2C195.2,199.9,195.2,202.5,195.2,207.7z"/>
	<path id="XMLID_76_" clip-path="url(#XMLID_4_)" fill="#FFFFFF" d="M81.4,81.8c-7.6,0-15.2,0.1-22.8,0
		c-10.8-0.2-17.8-6.1-18.7-15.5c-0.9-9.8,4.1-15.9,15.1-18.9c2.2-0.6,4.4-2.5,5.8-4.4c8.6-11.7,23.7-13.5,34.9-4.2
		c2.2,1.8,5.7,2.9,8.6,2.8c11.4-0.6,20.9,7.3,21.7,18.7c0.8,11.3-7.5,21-18.9,21.5C98.4,82,89.9,81.7,81.4,81.8
		C81.4,81.7,81.4,81.7,81.4,81.8z M62.3,53.3c-2.4,0-4.5-0.2-6.6,0c-6.1,0.6-10.3,5.6-10.1,11.6c0.3,6.5,5.1,10.9,13.2,11
		c14.9,0.2,29.8,0.1,44.7,0c1.9,0,3.7-0.5,5.6-1c7.8-2,12.2-9.3,10.4-16.7c-1.8-7.4-9.3-12.1-16.9-10.5c-2,0.4-4,1.3-5.8,1.9
		C83.9,33.7,71.1,35,62.3,53.3z"/>
</g>
</svg>
