<?xml version="1.0" encoding="utf-8"?>
<!-- Generator: Adobe Illustrator 19.0.0, SVG Export Plug-In . SVG Version: 6.00 Build 0)  -->
<svg version="1.1" id="Layer_1" xmlns="http://www.w3.org/2000/svg" xmlns:xlink="http://www.w3.org/1999/xlink" x="0px" y="0px"
	 viewBox="0 0 270 250" enable-background="new 0 0 270 250" xml:space="preserve">
<circle id="XMLID_27_" fill="#A4C639" cx="128.5" cy="123.4" r="116.5"/>
<path id="XMLID_33_" fill="#FFFFFF" d="M201.5,173.1c-11.9,2.7-23.7,5.5-35.5,8.2c-14.8,3.4-29.6,6.7-44.4,10.2
	c-3.9,0.9-7.6,0.8-11.4-0.4c-15-4.8-29.9-9.5-44.9-14.4c-8.8-2.9-14.1-10.2-13.8-18.8c0.2-5,2-9.3,5.6-12.8c0.4-0.4,1-0.7,1.5-1
	c-9.5-12.3-9.5-19.5-0.1-30c-1.1-1.4-2.4-2.8-3.4-4.4c-3.9-6.1-4.2-12.6-0.9-18.9c3.4-6.4,9-9.4,16.1-10.1c5.7-0.6,11.4-1.9,17.1-3
	c16.4-3.1,32.7-6.5,49.1-9.5c8.6-1.6,17.1-0.8,25.7,0.5c12.8,1.9,25.7,3.7,38.6,5.4c2.2,0.3,3.3,1,3.5,3.3c0.2,2.1,0.8,4.1,1.2,6.6
	c-3.6,0.8-7.2,1.5-10.7,2.3c-21.6,4.7-43.3,9.3-64.9,14c-11.5,2.5-22.7,2.6-33.9-1.8c-7.3-2.9-14.8-5.1-22.2-7.5
	c-5.5-1.8-10.5,1.2-11.9,6.8c-1.1,4.6,1.7,9.1,6.8,10.8c7.4,2.4,14.7,4.7,22.1,7.1c5.4,1.7,11,3.2,16.3,5.3
	c6.3,2.4,12.5,2.4,19.1,0.8c22.6-5.4,45.3-10.4,67.9-15.6c4.2-1,6.4,0.4,7.3,4.6c0.2,1.1,0.4,2.1,0.7,3.4c-3.9,0.9-7.7,1.8-11.5,2.7
	c-23,5.3-46,10.5-69.1,15.8c-3.7,0.9-7.4,0.7-11.1-0.5c-11.8-3.8-23.5-7.6-35.3-11.2c-2-0.6-4.2-1.1-6.2-0.8c-4.4,0.6-7.3,4-7.7,8.2
	c-0.4,4,2.2,8,6.4,9.4c6.6,2.2,13.2,4.3,19.9,6.4c8.3,2.6,16.6,5.4,25.1,7.8c2.7,0.7,5.8,0.7,8.6,0.1c23.8-5.3,47.6-10.7,71.4-16.3
	c5.8-1.4,8.4,0.4,9,7.9c-4.9,1.1-9.8,2.3-14.7,3.4c-21.6,5-43.3,9.9-64.9,14.9c-4.1,0.9-8.1,0.8-12-0.5
	c-11.8-3.8-23.7-7.6-35.5-11.3c-6.2-1.9-11.2,0.6-12.7,6.4c-1.2,4.6,1.4,9.2,6.3,10.8c8.3,2.7,16.7,5.4,25,8
	c5.1,1.6,10.2,3,15.2,4.9c5.5,2.1,10.9,1.9,16.6,0.6c22.4-5.2,44.9-10.1,67.2-15.5C199.3,163.4,201,166.8,201.5,173.1z"/>
</svg>
