<?xml version="1.0" encoding="utf-8"?>
<!-- Generator: Adobe Illustrator 19.0.0, SVG Export Plug-In . SVG Version: 6.00 Build 0)  -->
<svg version="1.1" id="Layer_1" xmlns="http://www.w3.org/2000/svg" xmlns:xlink="http://www.w3.org/1999/xlink" x="0px" y="0px"
	 viewBox="0 0 270 250" enable-background="new 0 0 270 250" xml:space="preserve">
<g id="XMLID_2_">
	<defs>
		<circle id="XMLID_1_" cx="128.5" cy="123.4" r="116.5"/>
	</defs>
	<clipPath id="XMLID_4_">
		<use xlink:href="#XMLID_1_"  overflow="visible"/>
	</clipPath>
	<circle id="XMLID_27_" clip-path="url(#XMLID_4_)" fill="#A4C639" cx="128.5" cy="123.4" r="116.5"/>
</g>
<path id="XMLID_71_" fill="#FFFFFF" d="M94.8,211c-1.4-0.9-1.8-2.2-1.8-3.8c0.1-4.3,0-8.6,0-12.9c0-0.5,0-1.1,0-1.9
	c-2.1,0-4,0.1-5.9,0c-6.4-0.3-12-5.9-12.4-12.3c-0.1-1.6-0.2-3.2-0.2-4.8c0-34.2,0-68.4,0-102.6c0-2.2-0.1-4.4,0.3-6.5
	c0.8-3.9,3.2-6.6,7.1-7.9c0.5-0.2,0.9-0.3,1.4-0.5c33.5,0,67,0,100.5,0c2.2,1.9,2.2,3.2,0,5.3c-3.1,3-3.2,7.6,0,10.6
	c1.1,1,1.6,2.2,1.6,3.7c0,37.1,0,74.3,0,111.4c0,3-0.8,3.8-3.9,3.8c-20,0-40,0-60,0c-0.6,0-1.3,0-2.1,0c0,0.6-0.1,1.1-0.1,1.7
	c0,4.3-0.1,8.7,0,13c0,1.6-0.4,2.9-1.8,3.8c-0.6,0-1.2,0-1.8,0c-2.7-2.6-5.4-5.2-8.1-7.9c-1.6-1.5-1.6-1.5-3.2,0
	c-2.7,2.6-5.4,5.2-8.1,7.8C96,211,95.4,211,94.8,211z M80,77.6c0,0.7-0.1,1.1-0.1,1.5c0,33,0,65.9,0,98.9c0,1,0.1,2.1,0.3,3.1
	c1,3.9,4.2,6.1,8.8,6.1c29.9,0,59.7,0,89.6,0c0.5,0,1,0,1.5-0.1c0-36.1,0-72,0-108.1c-0.8,0-1.4,0-2.1,0c-29.8,0-59.6,0-89.4,0
	C85.8,79,82.9,79.1,80,77.6z M177.3,63.1c-0.7,0-1.2,0-1.7,0c-29.7,0-59.4,0-89.2,0c-0.5,0-1,0-1.5,0c-3,0.1-5.2,2.7-4.9,5.6
	c0.3,3,2.6,4.9,6.2,4.9c29.9,0,59.7,0,89.6,0c0.5,0,1,0,1.5,0c-0.6-2.7-0.6-2.7-3.2-2.7c-4.8,0-9.7,0-14.5,0c-1.9,0-3-1-3.1-2.5
	c-0.1-1.5,1.2-2.7,3.1-2.8c0.3,0,0.7,0,1,0c4.5,0,9.1,0,13.6,0C176.6,65.6,176.6,65.6,177.3,63.1z M98.5,202
	c1.1-1.2,1.9-2.1,2.8-2.9c3.3-3.3,6.8-3.3,10.1,0c0.9,0.9,1.8,1.8,2.8,2.7c0-3.2,0-6.2,0-9.2c-5.3,0-10.4,0-15.7,0
	C98.5,195.6,98.5,198.5,98.5,202z"/>
<path id="XMLID_62_" fill="#FFFFFF" d="M161.7,126.5c-7,0-13.9,0-21,0c0,18.5,0,36.9,0,55.3c-7.1,0-14,0-21.1,0
	c0-18.4,0-36.8,0-55.3c-7.1,0-14,0-21.1,0c0-7.1,0-14,0-21.2c6.9,0,13.8,0,21,0c0-7.1,0-14.1,0-21.2c7.1,0,14.1,0,21.2,0
	c0,7,0,14,0,21c7.1,0,14,0,21,0C161.7,112.4,161.7,119.3,161.7,126.5z M135.4,110.7c0-7.1,0-14.1,0-21.1c-3.6,0-6.9,0-10.5,0
	c0,7,0,14,0,21.2c-7.1,0-14,0-20.9,0c0,3.6,0,7,0,10.5c7,0,13.9,0,21.1,0c0,18.5,0,36.9,0,55.3c3.6,0,6.9,0,10.4,0
	c0-18.4,0-36.8,0-55.4c7.1,0,14.1,0,21,0c0-3.6,0-7,0-10.5C149.4,110.7,142.5,110.7,135.4,110.7z"/>
</svg>
