<?xml version="1.0" encoding="utf-8"?>
<!-- Generator: Adobe Illustrator 19.0.0, SVG Export Plug-In . SVG Version: 6.00 Build 0)  -->
<svg version="1.1" id="Layer_1" xmlns="http://www.w3.org/2000/svg" xmlns:xlink="http://www.w3.org/1999/xlink" x="0px" y="0px"
	 viewBox="0 0 270 250" enable-background="new 0 0 270 250" xml:space="preserve">
<g id="XMLID_2_">
	<defs>
		<circle id="XMLID_1_" cx="128.5" cy="123.4" r="116.5"/>
	</defs>
	<clipPath id="XMLID_4_">
		<use xlink:href="#XMLID_1_"  overflow="visible"/>
	</clipPath>
	<circle id="XMLID_27_" clip-path="url(#XMLID_4_)" fill="#A4C639" cx="128.5" cy="123.4" r="116.5"/>
</g>
<path id="XMLID_72_" fill="#FFFFFF" d="M203.4,116.8c-0.4,0.6-0.6,1.3-1.2,1.7c-0.8,0.6-1.8,1.4-2.7,1.5c-1.7,0.2-3.6,0.1-5.4,0.1
	c0-9.3,0-18.6,0-27.9c1.8,0,3.6-0.1,5.3,0c2.1,0.2,3.2,1.7,4,3.5C203.4,102.8,203.4,109.8,203.4,116.8z"/>
<path id="XMLID_71_" fill="#FFFFFF" d="M53.6,95.8c1.9-3.5,2.8-3.9,9.2-3.5c0,9.3,0,18.6,0,27.9c-1.8,0-3.6,0.1-5.4,0
	c-1.5-0.1-2.6-1-3.3-2.3c-0.2-0.3-0.4-0.7-0.6-1C53.6,109.8,53.6,102.8,53.6,95.8z"/>
<path id="XMLID_65_" fill="#FFFFFF" d="M147.2,176.5c-12.6,0-25,0-37.5,0c0,2.9,0,5.7,0,8.5c0,1.2-0.1,2.4-0.5,3.5
	c-1.2,4-4.5,6.5-8.7,6.6c-3.2,0-6.5,0-9.7,0c-5.1-0.1-8.9-3.8-9.1-8.9c-0.1-2.8,0-5.6,0-8.4c0-0.4,0-0.9,0-1.1
	c-1.7-0.6-3.2-0.9-4.5-1.6c-3.5-1.8-4.9-4.9-4.9-8.7c0-3.4,0-6.8,0-10.2c0-24,0-48.1,0-72.1c0-7.2,1.8-13.6,6.4-19.2
	c3.7-4.5,8.3-7.6,14-9.1c2.4-0.6,5-1,7.5-1c18.9-0.1,37.7-0.1,56.6,0c8.6,0,15.8,3.5,21.3,10c4.4,5.2,6.5,11.3,6.5,18.2
	c0,27.8,0,55.7,0,83.5c0,5.4-3.8,9.6-9,9.9c-0.1,0-0.2,0.1-0.5,0.1c0,2.8,0,5.7,0,8.6c0,1.2-0.1,2.5-0.5,3.6c-1,3.4-4.2,6.1-7.8,6.3
	c-3.8,0.1-7.6,0.2-11.4,0c-4.8-0.2-8.3-4.3-8.3-9.5c0-2.6,0-5.1,0-7.7C147.2,177.4,147.2,177,147.2,176.5z M175.4,83
	c-31.3,0-62.5,0-93.7,0c0,18.7,0,37.4,0,56c31.3,0,62.4,0,93.7,0C175.4,120.3,175.4,101.7,175.4,83z M109.9,64.2c0,3.2,0,6.2,0,9.3
	c12.5,0,24.9,0,37.3,0c0-3.1,0-6.2,0-9.3C134.7,64.2,122.3,64.2,109.9,64.2z M165.9,167.1c5.1,0,9.3-4.1,9.4-9.3
	c0.1-5.1-4.2-9.4-9.3-9.4c-5.2,0-9.4,4.1-9.4,9.3C156.5,162.8,160.8,167.1,165.9,167.1z M91.1,167.1c5.1,0,9.4-4.3,9.3-9.4
	c0-5.1-4.3-9.3-9.4-9.3c-5.2,0-9.4,4.3-9.3,9.4C81.8,162.9,86,167.1,91.1,167.1z"/>
</svg>
