<?xml version="1.0" encoding="utf-8"?>
<!-- Generator: Adobe Illustrator 19.0.0, SVG Export Plug-In . SVG Version: 6.00 Build 0)  -->
<svg version="1.1" id="Layer_1" xmlns="http://www.w3.org/2000/svg" xmlns:xlink="http://www.w3.org/1999/xlink" x="0px" y="0px"
	 viewBox="0 0 270 250" enable-background="new 0 0 270 250" xml:space="preserve">
<g id="XMLID_2_">
	<defs>
		<circle id="XMLID_1_" cx="128.5" cy="123.4" r="116.5"/>
	</defs>
	<clipPath id="XMLID_4_">
		<use xlink:href="#XMLID_1_"  overflow="visible"/>
	</clipPath>
	<circle id="XMLID_27_" clip-path="url(#XMLID_4_)" fill="#A4C639" cx="128.5" cy="123.4" r="116.5"/>
</g>
<path id="XMLID_47_" fill="#FFFFFF" d="M157.6,85.5c9,0,17.8,0,26.8,0c2,36.1,4,72.2,6,108.3c-39.9,0-79.8,0-119.8,0
	c2-36.1,4-72.2,6-108.3c8.9,0,17.8,0,26.8,0c0-0.2,0-0.4,0-0.6c0-1.8,0-3.7,0-5.5c0.1-4.6,1.4-8.9,3.7-12.9c2.1-3.6,4.8-6.5,8.2-8.8
	c3.6-2.4,7.5-3.9,11.9-4.5c4.8-0.6,9.4,0,13.8,1.9c3.5,1.5,6.6,3.6,9.3,6.4c2.3,2.5,4.1,5.2,5.4,8.4c1,2.3,1.6,4.8,1.9,7.3
	c0.1,1.4,0.1,2.8,0.1,4.3C157.6,82.8,157.6,84.1,157.6,85.5z M86.9,96.4c-1.6,28.9-3.2,57.8-4.8,86.6c32.3,0,64.6,0,96.9,0
	c-1.6-28.9-3.2-57.8-4.8-86.6c-5.6,0-11,0-16.6,0c0,5.4,0,10.8,0,16.2c-3.6,0-7.2,0-10.8,0c0-5.4,0-10.8,0-16.2
	c-10.8,0-21.6,0-32.5,0c0,5.4,0,10.8,0,16.2c-3.6,0-7.2,0-10.8,0c0-5.4,0-10.8,0-16.2C97.9,96.4,92.4,96.4,86.9,96.4z M146.8,85.5
	c0-1.6,0-3.1,0-4.7c0-1.2-0.1-2.4-0.3-3.6c-0.8-4.4-3.1-7.9-6.7-10.5c-3.7-2.5-7.7-3.5-12.1-2.7c-4.4,0.8-7.8,3.1-10.4,6.7
	c-1.7,2.3-2.7,5-2.8,7.8c-0.1,1.9-0.1,3.8-0.1,5.6c0,0.4,0,0.8,0,1.2C125.1,85.5,135.9,85.5,146.8,85.5z"/>
</svg>
