<?xml version="1.0" encoding="utf-8"?>
<!-- Generator: Adobe Illustrator 19.0.0, SVG Export Plug-In . SVG Version: 6.00 Build 0)  -->
<svg version="1.1" id="Layer_1" xmlns="http://www.w3.org/2000/svg" xmlns:xlink="http://www.w3.org/1999/xlink" x="0px" y="0px"
	 viewBox="0 0 270 250" enable-background="new 0 0 270 250" xml:space="preserve">
<circle id="XMLID_27_" fill="#A4C639" cx="128.5" cy="123.4" r="116.5"/>
<g id="XMLID_1_">
	<path id="XMLID_44_" fill="#FFFFFF" d="M75,187.4c0-20.5,0-41.1,0-61.6c0-0.6,0-1.2,0.1-1.8c0.3-1.3,1.7-2.2,3-2.1
		c1.4,0.1,2.5,1.1,2.8,2.5c0.1,0.6,0.1,1.2,0.1,1.8c0,17.7,0,35.4,0,53.1c0,0.6,0,1.2,0,1.9c9.9,0,19.7,0,29.7,0
		c0-12.8,0-25.6,0-38.4c11.9,0,23.7,0,35.7,0c0,12.8,0,25.6,0,38.5c9.9,0,19.7,0,29.8,0c0-0.6,0-1.2,0-1.7c0-16.8,0-33.5,0-50.3
		c0-0.6,0-1.2,0.1-1.8c0.2-1.6,1.5-2.6,3.1-2.5c1.5,0.1,2.7,1.3,2.8,2.8c0,0.4,0,0.8,0,1.3c0,19.5,0,38.9,0,58.4
		c-13.8,0-27.7,0-41.5,0c0-0.6-0.1-1.2-0.1-1.8c0-11.7,0-23.4,0-35.1c0-0.5,0-1.1,0-1.6c-8,0-15.8,0-23.7,0c0,0.7,0,1.2,0,1.8
		c0,11.6,0,23.3,0,34.9c0,0.6-0.1,1.2-0.1,1.8C102.7,187.4,88.8,187.4,75,187.4z"/>
	<path id="XMLID_43_" fill="#FFFFFF" d="M57.1,121.1c0.5-0.6,0.9-1.3,1.5-1.8c23-22,46-44,69.1-66.1c0.2-0.2,0.5-0.4,0.8-0.7
		c0.3,0.2,0.6,0.5,0.8,0.7c23,22,46.1,44,69.1,66.1c0.6,0.5,1,1.2,1.5,1.8c0,0.7,0,1.3,0,2c-1.9,2.5-3.5,2.6-5.8,0.4
		c-21.6-20.6-43.2-41.3-64.7-61.9c-0.2-0.2-0.5-0.4-0.8-0.7c-0.3,0.2-0.6,0.5-0.8,0.7c-21.6,20.6-43.2,41.3-64.7,61.9
		c-2.3,2.2-3.9,2.1-5.8-0.4C57.1,122.4,57.1,121.7,57.1,121.1z"/>
	<path id="XMLID_41_" fill="#FFFFFF" d="M176.1,62.5c0,2.7,0,5.2,0,7.7c0,5.2,0,10.3,0,15.5c0,2.2-1.2,3.6-3,3.6c-1.9,0-3-1.3-3-3.6
		c0-5.2,0-10.3,0-15.5c0-0.5,0-1,0-1.7c-0.6,0-1.1-0.1-1.7-0.1c-5.2,0-10.4,0-15.6,0c-2.1,0-3.4-1.1-3.5-2.8c-0.1-1.6,1-3.1,2.5-3.1
		C159.9,62.5,167.9,62.5,176.1,62.5z"/>
</g>
</svg>
