<?xml version="1.0" encoding="utf-8"?>
<!-- Generator: Adobe Illustrator 19.0.0, SVG Export Plug-In . SVG Version: 6.00 Build 0)  -->
<svg version="1.1" id="Layer_1" xmlns="http://www.w3.org/2000/svg" xmlns:xlink="http://www.w3.org/1999/xlink" x="0px" y="0px"
	 viewBox="0 0 270 250" enable-background="new 0 0 270 250" xml:space="preserve">
<circle id="XMLID_27_" fill="#A4C639" cx="128.5" cy="123.4" r="116.5"/>
<g id="XMLID_1_">
	<path id="XMLID_59_" fill="#FFFFFF" d="M53.5,181.6c2.3,0,4.6,0,7.3,0c0-2.9,0-5.6,0-8.6c2.6,0,4.9,0,7.5,0c0-3,0-5.7,0-8.6
		c41.9,0,83.4,0,125.2,0c0,2.8,0,5.4,0,8.5c2.6,0,5,0,7.5,0c0,3,0,5.7,0,8.7c2.6,0,5,0,7.3,0c0,2.9,0,5.9,0,8.8
		c-51.6,0-103.2,0-154.9,0C53.5,187.5,53.5,184.5,53.5,181.6z"/>
	<path id="XMLID_58_" fill="#FFFFFF" d="M131.5,42.3c0.8,0.5,1.6,1,2.4,1.4c20.9,9.9,41.8,19.7,62.7,29.6c4.1,1.9,4.1,1.9,3.2,6.8
		c-45.9,0-91.8,0-137.7,0c-0.9-4.9-0.9-4.9,3.2-6.8c20.9-9.9,41.8-19.7,62.7-29.6c0.8-0.4,1.6-0.9,2.4-1.4
		C130.8,42.3,131.1,42.3,131.5,42.3z"/>
	<path id="XMLID_57_" fill="#FFFFFF" d="M109.7,94c4.3,0,8.2,0,12.6,0c0.6,22.5,1.3,45,1.9,67.6c-5.5,0-10.6,0-16.2,0
		C108.6,139.2,109.2,116.8,109.7,94z"/>
	<path id="XMLID_56_" fill="#FFFFFF" d="M153.8,161.6c-5.6,0-10.8,0-16.3,0c0.6-22.6,1.1-45,1.7-67.6c4.3,0,8.3,0,12.6,0
		C152.6,116.6,153.2,139,153.8,161.6z"/>
	<path id="XMLID_55_" fill="#FFFFFF" d="M80.2,93.9c4,0,7.7-0.1,11.4,0.1c0.5,0,1.2,1.3,1.3,2c0.2,4.8,0.3,9.7,0.5,14.5
		c0.5,16.3,0.9,32.5,1.4,48.8c0,0.8,0,1.5,0,2.4c-5.4,0-10.6,0-16.1,0C79.1,139.2,79.6,116.8,80.2,93.9z"/>
	<path id="XMLID_54_" fill="#FFFFFF" d="M75.3,91.3c0-2.8,0-5.5,0-8.3c37.1,0,74.1,0,111.3,0c0,2.8,0,5.5,0,8.3
		C149.4,91.3,112.4,91.3,75.3,91.3z"/>
	<path id="XMLID_53_" fill="#FFFFFF" d="M183.4,161.6c-5.6,0-10.8,0-16.2,0c0.6-22.6,1.1-45,1.7-67.5c4.2,0,8.2,0,12.6,0
		C182.1,116.6,182.7,139,183.4,161.6z"/>
</g>
</svg>
