<?xml version="1.0" encoding="utf-8"?>
<!-- Generator: Adobe Illustrator 19.0.0, SVG Export Plug-In . SVG Version: 6.00 Build 0)  -->
<svg version="1.1" id="Layer_1" xmlns="http://www.w3.org/2000/svg" xmlns:xlink="http://www.w3.org/1999/xlink" x="0px" y="0px"
	 viewBox="-170 272 270 250" style="enable-background:new -170 272 270 250;" xml:space="preserve">
<style type="text/css">
	.st0{clip-path:url(#SVGID_2_);fill:#A4C639;}
	.st1{display:none;}
	.st2{display:inline;fill:#FFFFFF;}
	.st3{fill:#FFFFFF;}
</style>
<g id="XMLID_2_">
	<g>
		<defs>
			<circle id="SVGID_1_" cx="-41.5" cy="395.4" r="116.5"/>
		</defs>
		<clipPath id="SVGID_2_">
			<use xlink:href="#SVGID_1_"  style="overflow:visible;"/>
		</clipPath>
		<circle id="XMLID_27_" class="st0" cx="-41.5" cy="395.4" r="116.5"/>
	</g>
</g>
<g id="XMLID_3_" class="st1">
	<path id="XMLID_55_" class="st2" d="M2.2,321.7c1.9,0.4,3.8,0.7,5.7,1.2c6,1.5,11.3,4.3,16.1,8.3c5.5,4.6,8.5,10.7,10.5,17.4
		c1.5,5.1,1.7,10.5,1.2,15.7c-0.6,7.7-2.8,15-6.4,22c-2.6,5.1-5.6,10-9.4,14.3c-2.5,2.8-4.9,5.7-7.7,8.2c-5,4.7-10.4,8.6-16.5,11.9
		c-5.4,2.9-11,5-17,6.4c-5.2,1.2-10.5,1.5-15.9,1.3c-2.4-0.1-4.9-0.9-7.3-0.8c-6.2,0.2-12.4,0.7-18.4,2.7c-3.3,1-6.3,2.6-8.7,5.3
		c-1.7,1.9-3.5,3.6-5.3,5.3c-0.5,0.5-0.5,0.8-0.2,1.5c1.4,2.8,1,4.5-1.2,6.8c-7,7-14.1,13.9-20.9,21c-2.7,2.8-4.9,2.5-7.8,1.3
		c-3.8-1.6-6.2-4.4-7.5-8.3c-0.1-0.2-0.2-0.4-0.3-0.6c0-1.4,0-2.7,0-4.1c0.5-0.5,0.9-1.1,1.4-1.6c7.2-7.2,14.6-14.4,21.7-21.8
		c2-2.1,5.6-2.7,8-0.4c2.6-2.7,5.5-5.2,7.6-8.2c1.6-2.2,2.5-5.1,3.2-7.8c1.3-4.7,1.5-9.6,1.9-14.4c0.5-5.2-1.2-10.2-0.7-15.4
		c0.3-3.1,0.7-6.3,1-9.2c4.5,0.6,8.7,1.2,12.9,1.8c-0.2,2.2-0.7,4.8-0.6,7.3c0.1,5.9,1,11.6,4.4,16.7c3.1,4.8,7.7,7.8,13.2,9.2
		c6.7,1.7,13.4,1.1,20-0.7c6.7-1.8,12.8-4.9,18.3-9c7.4-5.5,13.5-12.1,18.1-20.1c3.2-5.5,5.5-11.4,6.7-17.7c1.3-7.1,1-14.1-2.4-20.6
		c-3.2-6.1-8.4-9.8-15.1-11.3c-7.7-1.7-15.2-0.9-22.5,2.1c-2.1,0.9-4.1,2-6.1,3.1c-1.6-3.9-3.3-7.8-5-12c1.4-0.7,3.1-1.5,4.8-2.2
		c4.7-1.9,9.5-3.2,14.5-4.1c0.7-0.1,1.4-0.2,2.1-0.3C-4.3,321.7-1.1,321.7,2.2,321.7z M-59.7,419.9c-0.9-0.9-1.9-1.9-2.8-2.9
		c-0.2,1-0.4,2.2-0.7,3.6C-61.7,420.3-60.5,420-59.7,419.9z"/>
	<path id="XMLID_54_" class="st2" d="M-44.8,321.7c2.8,1,5.8,1.7,8.4,3.1c8.1,4.4,13.1,11.2,14.9,20.3c0.2,1,0.3,2.1,0.3,3.1
		c0,0.3-0.1,0.7-0.1,0.9c-3.9,0-7.4-1.1-10.8-2.9c-7.5-4-13.2-9.7-15.8-18c-0.6-2.1-0.7-4.3-1-6.5
		C-47.5,321.7-46.1,321.7-44.8,321.7z"/>
	<path id="XMLID_53_" class="st2" d="M-78.3,346.2c1.4-13.9,15.3-23.8,23.4-23.7c0.9,8.8,5.5,15.6,11.5,21.7
		c6.1,6.1,13.1,10.4,22.1,10.5c-1.9,14.9-14.9,23.4-24,23.9C-48.3,360.5-61.1,347.7-78.3,346.2z"/>
	<path id="XMLID_52_" class="st2" d="M-51.6,379.2c-14.5,0.9-28-14-27.4-27.3C-65.7,350.7-51.4,366.4-51.6,379.2z"/>
</g>
<g>
	<path id="XMLID_114_" class="st3" d="M-9.2,320.1c1.5,0.7,2.9,1.4,4.4,2.1c1.3,0.6,2.6,1.3,4.1,1.9c-4.4,9.4-8.7,18.8-13.2,28.3
		c13.2,0.1,26.2,0.2,39.3,0.3c-0.7,0.7-1.3,1.4-1.8,2c-9,9.6-18,19.2-27,28.8c-10.6,11.3-21.2,22.6-31.8,34
		c-1.1,1.2-2.3,2.4-3.4,3.6c-0.2,0.3-0.4,0.7-0.4,1c0,13.5,0,27.1,0,40.6c0,0.6,0.3,0.8,0.7,1c8,4.3,15.9,8.6,23.9,13
		c0.3,0.2,0.6,0.3,1,0.6c-0.3,0-0.5,0.1-0.7,0.1c-2.5,0-5,0-7.5,0.1c-0.3,0-0.5,0.1-0.8,0.1c-12.5,0-25.1,0-37.6,0
		c-1.3,0-2.5-0.1-3.8-0.1c-1.7,0-3.4,0-5.1-0.2c1.3-0.7,2.5-1.4,3.8-2.1c7-3.8,13.9-7.6,20.9-11.4c0.5-0.3,0.7-0.6,0.7-1.1
		c0-13.4,0-26.9-0.1-40.3c0-0.4-0.2-1-0.5-1.3c-10.5-11.3-21-22.5-31.6-33.7c-10.6-11.4-21.3-22.8-31.9-34.2
		c-0.1-0.1-0.2-0.2-0.3-0.4c0.3,0,0.5-0.1,0.8-0.1c26.4-0.1,52.9-0.1,79.3-0.2c0.7,0,1.5,0,2.2,0c0.6,0,0.8-0.2,1.1-0.7
		c2.8-5.9,5.5-11.9,8.3-17.8c2.2-4.7,4.5-9.3,6.7-14C-9.4,320.1-9.3,320.1-9.2,320.1z M-27.3,357.6c-23.4,0-46.6,0-69.8,0
		c0.1,0.2,0.3,0.3,0.4,0.5c1.8,1.9,3.5,3.9,5.3,5.9c0.5,0.5,0.9,0.7,1.6,0.7c19.4,0,38.8,0,58.2,0c0.2,0,0.4,0,0.6,0
		s0.4-0.1,0.5-0.3C-29.4,362.2-28.4,360-27.3,357.6z M-26.5,389c0.1-5.6-4.5-10.4-9.9-10.4c-5.9-0.1-10.5,4.4-10.6,10.3
		c-0.1,5.5,4.6,10.2,10.1,10.3C-31.2,399.2-26.6,394.8-26.5,389z M14.5,357.4c-0.5,0-0.8,0-1.2,0c-9.3,0-18.5,0-27.8,0
		c-1.6,0-2.5,0.4-3,1.9c-0.5,1.7-1.3,3.2-2,4.9c0.6,0.1,1,0.2,1.4,0.2c8.5,0.1,17,0.1,25.5,0.2c0.2,0,0.6-0.1,0.7-0.2
		C10.3,362.1,12.4,359.9,14.5,357.4z M-29.4,377.2c0.1-0.3,0.2-0.4,0.3-0.6c7.7-16.4,15.3-32.7,23-49.1c0.9-1.9,0.8-2-1.1-2.7
		c-0.5-0.2-0.8-0.2-1,0.3c-0.3,0.6-0.6,1.2-0.9,1.9c-4,8.7-8.1,17.4-12.1,26.1c-3.4,7.4-6.9,14.7-10.3,22.1
		c-0.3,0.6-0.2,0.9,0.4,1.1C-30.7,376.5-30.1,376.8-29.4,377.2z M-43.7,406.4c0.2-0.1,0.6-0.3,0.7-0.6c0.5-1,0.9-2,1.3-3
		c0.3-0.9-0.5-1.1-1-1.5c-0.5-0.3-1.1-0.2-1.4,0.4c-0.5,0.9-1,1.7-1.4,2.6C-45.9,405.4-45.1,406.5-43.7,406.4z"/>
</g>
</svg>
