<?xml version="1.0" encoding="utf-8"?>
<!-- Generator: Adobe Illustrator 19.0.0, SVG Export Plug-In . SVG Version: 6.00 Build 0)  -->
<svg version="1.1" id="Layer_1" xmlns="http://www.w3.org/2000/svg" xmlns:xlink="http://www.w3.org/1999/xlink" x="0px" y="0px"
	 viewBox="0 0 270 250" enable-background="new 0 0 270 250" xml:space="preserve">
<circle id="XMLID_27_" fill="#A4C639" cx="128.5" cy="123.4" r="116.5"/>
<g id="XMLID_1_">
	<path id="XMLID_36_" fill="#FFFFFF" d="M55.5,104.7c0.8-2.9,1.4-5.8,2.3-8.7C63.6,77,79.5,64.9,98.2,65.4
		c10,0.3,18.6,4.1,25.9,11.1c1.4,1.3,2.8,2.7,4.3,4.1c5.6-6.6,12.6-11.5,21.2-13.8c20.9-5.6,41.4,5.9,49,27.3
		c5.2,14.7,3.1,28.7-3.8,42.2c-0.5,0.9-1.7,1.9-2.6,1.9c-9.8,0.1-19.7,0.1-29.8,0.1c-1.6-9.5-3.1-18.9-4.6-28.2
		c-0.8-4.8-1.5-9.6-2.2-14.4c-0.6-3.8-2.7-6.1-5.9-6.3c-3.2-0.2-5.5,1.9-6.4,5.8c-2,9.5-4,19-6,28.5c-0.3,1.3-0.6,2.5-0.9,3.8
		c-5.8-3.3-8.3-2.6-11.6,3.1c-1.7,3-3.3,5.9-5,8.9c-0.1,0.2-0.3,0.3-0.9,0.7c-2.3-5.6-4.5-11-6.7-16.4c-1.1-2.8-2.3-5.6-3.4-8.5
		c-1.1-2.9-2.7-5.2-6.2-5.2c-3.3,0-4.9,2-6.2,4.8c-3.1,6.9-6.4,13.6-9.4,20.5c-0.9,2.1-2,2.9-4.3,2.9c-5.5-0.2-10.9-0.2-16.4,0
		c-2.3,0.1-3.7-0.7-4.4-2.8c-2.1-6.4-4.2-12.8-6.3-19.3C55.5,112.5,55.5,108.6,55.5,104.7z"/>
	<path id="XMLID_35_" fill="#FFFFFF" d="M128.5,201.5c-18.9-16.8-37.4-33.3-55.9-49.8c0.1-0.3,0.2-0.7,0.3-1c4.3,0,8.6-0.3,12.8,0.1
		c5.6,0.5,8.9-1.7,10.8-7c1.4-4,3.5-7.7,5.6-12.2c1.7,4,3.1,7.4,4.5,10.9c2,4.8,3.6,9.8,6,14.4c0.9,1.8,3.3,3.7,5.1,3.8
		c1.8,0.1,4.5-1.4,5.6-3.1c2.9-4.2,5.1-8.8,7.9-13.7c0.8,1.1,1.4,1.9,1.9,2.7c1.5,2.6,3.5,4.5,6.7,4c3.4-0.5,4.7-3,5.4-6.1
		c1-4.7,2-9.4,3.6-14.1c0.8,4.6,1.5,9.2,2.3,13.9c0.7,4.5,2.7,6.3,7.3,6.4c8.5,0.1,17,0,26.1,0.9C166,168.1,147.4,184.7,128.5,201.5
		z"/>
</g>
</svg>
