<?xml version="1.0" encoding="utf-8"?>
<!-- Generator: Adobe Illustrator 19.0.0, SVG Export Plug-In . SVG Version: 6.00 Build 0)  -->
<svg version="1.1" id="Layer_1" xmlns="http://www.w3.org/2000/svg" xmlns:xlink="http://www.w3.org/1999/xlink" x="0px" y="0px"
	 viewBox="0 0 270 250" enable-background="new 0 0 270 250" xml:space="preserve">
<g id="XMLID_2_">
	<defs>
		<circle id="XMLID_1_" cx="128.5" cy="123.4" r="116.5"/>
	</defs>
	<clipPath id="XMLID_5_">
		<use xlink:href="#XMLID_1_"  overflow="visible"/>
	</clipPath>
	<circle id="XMLID_27_" clip-path="url(#XMLID_5_)" fill="#A4C639" cx="128.5" cy="123.4" r="116.5"/>
</g>
<g id="XMLID_3_">
	<path id="XMLID_49_" fill="#FFFFFF" d="M155.2,153.5c0,3.8,0,7.5,0,11.2c-0.2,0-0.4,0-0.6,0c-5.4,0-10.9,0-16.3-0.1
		c-4.2-0.1-8.4-0.4-12.5-1.5c-3.2-0.9-6.2-2.2-8.9-4c-3.6-2.3-6.7-5.1-10-7.8c-2.3-1.9-4.7-3.8-7.1-5.6c-3.1-2.4-6.6-3.4-10.5-3.4
		c-3.9,0-7.7,0.5-11.4,1.4c-2.1,0.5-4.1,1.4-6.2,2.1c-5.1,1.8-10.2,3.6-15.4,5.4c-0.2,0.1-0.4,0.2-0.7,0.3c2.5,7.6,5,15.1,7.6,22.7
		c0.4-0.2,0.8-0.3,1.1-0.4c7-2.8,14.1-5.6,21.1-8.4c1.7-0.7,3.4-0.7,5.1,0.2c8.3,4.1,16.6,8.2,25,12.3c4.2,2.1,8.5,4.2,12.7,6.3
		c1.4,0.7,2.7,1.6,4.2,2.1c4.3,1.6,8.6,1.4,12.7-0.5c1.3-0.6,2.4-1.5,3.6-2.4c15.7-10.6,31.3-21.1,47-31.7c0.1-0.1,0.2-0.1,0.3-0.2
		c2.1,3.1,4.2,6.2,6.3,9.3c-1.9,1.3-3.7,2.5-5.6,3.8c-15.2,10.2-30.3,20.5-45.5,30.7c-2,1.3-4.2,2-6.5,2.5c-7.8,1.8-15,0.5-21.8-3.6
		c-2-1.2-4.1-2.1-6.2-3.1c-9.5-4.7-19.1-9.4-28.6-14.1c-0.4-0.2-0.7-0.2-1.1-0.1c-8.3,3.3-16.6,6.6-24.8,10
		c-3.3,1.3-6.8-0.2-7.9-3.7c-3.6-11-7.3-22-11-33c-1.1-3.4,0.3-6.3,3.7-7.5c9.1-3.2,18.2-6.4,27.4-9.5c2-0.7,4.1-1,6.2-1.3
		c2.5-0.3,5-0.5,7.5-0.6c7.8-0.1,14.7,2.3,20.7,7.2c4.1,3.4,8.4,6.7,12.6,10c2.7,2.1,5.7,3.8,9.1,4.2c2.4,0.3,4.7,0.6,7.1,0.7
		c5.7,0.2,11.4,0.2,17.2,0.3C154.9,153.5,155,153.5,155.2,153.5z"/>
	<path id="XMLID_46_" fill="#FFFFFF" d="M110.4,97.3c0-3.8,0-7.5,0-11.2c3.9,0,7.8,0,11.8,0c0.8-3.5,2.2-6.8,4.2-9.8
		c-2.8-2.8-5.6-5.6-8.4-8.4c2.7-2.7,5.3-5.3,7.9-7.9c2.7,2.8,5.5,5.6,8.3,8.4c0.7-0.4,1.3-0.8,1.9-1.1c2.3-1.3,4.7-2.3,7.3-2.9
		c0.5-0.1,0.7-0.3,0.7-0.9c0-3.5,0-7,0-10.4c0-0.2,0-0.4,0-0.7c3.7,0,7.4,0,11.2,0c0,3.9,0,7.8,0,11.7c3.5,0.8,6.8,2.1,9.8,4.1
		c2.8-2.8,5.6-5.6,8.3-8.3c2.7,2.7,5.3,5.3,8,8c-2.7,2.7-5.5,5.5-8.3,8.3c2,3.1,3.4,6.3,4.2,9.9c3.9,0,7.8,0,11.7,0
		c0,3.7,0,7.4,0,11.2c-3.9,0-7.8,0-11.7,0c-0.8,3.6-2.1,6.8-4.1,9.9c2.8,2.8,5.6,5.6,8.3,8.3c-2.7,2.6-5.3,5.3-8,7.9
		c-1.1-1.1-2.2-2.2-3.3-3.3c-1.6-1.6-3.2-3.1-4.7-4.7c-0.2-0.2-0.3-0.3-0.7-0.1c-2.9,1.9-6.1,3.2-9.5,3.9c0,3.9,0,7.8,0,11.7
		c-3.7,0-7.4,0-11.2,0c0-0.2,0-0.4,0-0.6c0-3.5,0-7.1,0-10.6c0-0.4-0.1-0.6-0.6-0.7c-3.1-0.7-6-2-8.7-3.7c-0.2-0.1-0.3-0.2-0.5-0.3
		c-2.8,2.8-5.6,5.6-8.3,8.4c-2.7-2.7-5.3-5.3-7.9-7.9c2.8-2.8,5.5-5.5,8.3-8.3c-0.9-1.7-1.8-3.2-2.5-4.8c-0.7-1.6-1.2-3.3-1.8-5.1
		C118.2,97.3,114.3,97.3,110.4,97.3z M149.6,108.6c9.3,0,16.8-7.5,16.8-16.8c0-9.3-7.5-16.9-16.9-16.8c-9.3,0-16.8,7.5-16.8,16.8
		C132.8,101,140.3,108.6,149.6,108.6z"/>
</g>
</svg>
