<?xml version="1.0" encoding="utf-8"?>
<!-- Generator: Adobe Illustrator 19.0.0, SVG Export Plug-In . SVG Version: 6.00 Build 0)  -->
<svg version="1.1" xmlns="http://www.w3.org/2000/svg" xmlns:xlink="http://www.w3.org/1999/xlink" x="0px" y="0px"
	 viewBox="-170 272 270 250" style="enable-background:new -170 272 270 250;" xml:space="preserve">
<style type="text/css">
	.st0{clip-path:url(#SVGID_2_);fill:#A4C639;}
	.st1{display:none;}
	.st2{display:inline;fill:#FFFFFF;}
	.st3{clip-path:url(#SVGID_4_);fill:#A3C53A;}
	.st4{fill:#FFFFFF;}
</style>
<g id="Layer_1">
	<g id="XMLID_2_">
		<g>
			<defs>
				<circle id="SVGID_1_" cx="-41.5" cy="395.4" r="116.5"/>
			</defs>
			<clipPath id="SVGID_2_">
				<use xlink:href="#SVGID_1_"  style="overflow:visible;"/>
			</clipPath>
			<circle id="XMLID_27_" class="st0" cx="-41.5" cy="395.4" r="116.5"/>
		</g>
	</g>
	<g id="XMLID_3_" class="st1">
		<path id="XMLID_55_" class="st2" d="M2.2,321.7c1.9,0.4,3.8,0.7,5.7,1.2c6,1.5,11.3,4.3,16.1,8.3c5.5,4.6,8.5,10.7,10.5,17.4
			c1.5,5.1,1.7,10.5,1.2,15.7c-0.6,7.7-2.8,15-6.4,22c-2.6,5.1-5.6,10-9.4,14.3c-2.5,2.8-4.9,5.7-7.7,8.2c-5,4.7-10.4,8.6-16.5,11.9
			c-5.4,2.9-11,5-17,6.4c-5.2,1.2-10.5,1.5-15.9,1.3c-2.4-0.1-4.9-0.9-7.3-0.8c-6.2,0.2-12.4,0.7-18.4,2.7c-3.3,1-6.3,2.6-8.7,5.3
			c-1.7,1.9-3.5,3.6-5.3,5.3c-0.5,0.5-0.5,0.8-0.2,1.5c1.4,2.8,1,4.5-1.2,6.8c-7,7-14.1,13.9-20.9,21c-2.7,2.8-4.9,2.5-7.8,1.3
			c-3.8-1.6-6.2-4.4-7.5-8.3c-0.1-0.2-0.2-0.4-0.3-0.6c0-1.4,0-2.7,0-4.1c0.5-0.5,0.9-1.1,1.4-1.6c7.2-7.2,14.6-14.4,21.7-21.8
			c2-2.1,5.6-2.7,8-0.4c2.6-2.7,5.5-5.2,7.6-8.2c1.6-2.2,2.5-5.1,3.2-7.8c1.3-4.7,1.5-9.6,1.9-14.4c0.5-5.2-1.2-10.2-0.7-15.4
			c0.3-3.1,0.7-6.3,1-9.2c4.5,0.6,8.7,1.2,12.9,1.8c-0.2,2.2-0.7,4.8-0.6,7.3c0.1,5.9,1,11.6,4.4,16.7c3.1,4.8,7.7,7.8,13.2,9.2
			c6.7,1.7,13.4,1.1,20-0.7c6.7-1.8,12.8-4.9,18.3-9c7.4-5.5,13.5-12.1,18.1-20.1c3.2-5.5,5.5-11.4,6.7-17.7
			c1.3-7.1,1-14.1-2.4-20.6c-3.2-6.1-8.4-9.8-15.1-11.3c-7.7-1.7-15.2-0.9-22.5,2.1c-2.1,0.9-4.1,2-6.1,3.1c-1.6-3.9-3.3-7.8-5-12
			c1.4-0.7,3.1-1.5,4.8-2.2c4.7-1.9,9.5-3.2,14.5-4.1c0.7-0.1,1.4-0.2,2.1-0.3C-4.3,321.7-1.1,321.7,2.2,321.7z M-59.7,419.9
			c-0.9-0.9-1.9-1.9-2.8-2.9c-0.2,1-0.4,2.2-0.7,3.6C-61.7,420.3-60.5,420-59.7,419.9z"/>
		<path id="XMLID_54_" class="st2" d="M-44.8,321.7c2.8,1,5.8,1.7,8.4,3.1c8.1,4.4,13.1,11.2,14.9,20.3c0.2,1,0.3,2.1,0.3,3.1
			c0,0.3-0.1,0.7-0.1,0.9c-3.9,0-7.4-1.1-10.8-2.9c-7.5-4-13.2-9.7-15.8-18c-0.6-2.1-0.7-4.3-1-6.5
			C-47.5,321.7-46.1,321.7-44.8,321.7z"/>
		<path id="XMLID_53_" class="st2" d="M-78.3,346.2c1.4-13.9,15.3-23.8,23.4-23.7c0.9,8.8,5.5,15.6,11.5,21.7
			c6.1,6.1,13.1,10.4,22.1,10.5c-1.9,14.9-14.9,23.4-24,23.9C-48.3,360.5-61.1,347.7-78.3,346.2z"/>
		<path id="XMLID_52_" class="st2" d="M-51.6,379.2c-14.5,0.9-28-14-27.4-27.3C-65.7,350.7-51.4,366.4-51.6,379.2z"/>
	</g>
</g>
<g id="Layer_2">
	<g id="XMLID_32_">
		<g id="XMLID_162_">
			<g>
				<defs>
					<circle id="SVGID_3_" cx="-41.5" cy="395" r="116.5"/>
				</defs>
				<clipPath id="SVGID_4_">
					<use xlink:href="#SVGID_3_"  style="overflow:visible;"/>
				</clipPath>
				<circle id="XMLID_164_" class="st3" cx="-41.5" cy="395" r="116.5"/>
			</g>
		</g>
		<path id="XMLID_157_" class="st4" d="M59.7,430.5c-8.2,9.1-16.6,18.1-24.6,27.3c-3,3.4-5.2,3.5-8.6,0.5
			c-9.2-8.4-18.6-16.6-28.1-24.6c-3.3-2.8-5.6-5.5-4.1-10c0.1-0.4,0.1-0.9,0.1-1.4c0.7-9.5,0.7-9.5-9.4-11.4c0,16.5,0,32.9,0,49.6
			c-17.8,0-35,0-52.8,0c0-14.2,0-28.4,0-43c-6.6,0-12.6,0-19.2,0c0,14.3,0,28.5,0,43c-6.9,0-13.3,0-20.4,0c0-26.3,0-52.5,0-80
			c-4.5,3.9-7.9,7-11.8,10.3c-3.5-3.9-7-7.8-10.5-11.8c6.5-5.8,12.6-11.5,18.9-16.9c2.4-2,3.4-4.1,3.3-7.3
			c-0.2-7.4-0.1-14.8-0.1-22.5c5.5,0,10.6,0,16.3,0c0,3.4,0,7,0,12.1c10.7-9.5,20.4-18.1,30.4-27c22.7,20.7,45.2,41.2,68.1,62.2
			c-3.6,3.9-6.9,7.6-10.6,11.6c-3.8-3.3-7.4-6.5-11.4-10c0,8.6,0,16.7,0,25.5c3.2,0.8,6.7,1.6,11,2.6c-1.1-7.1,3.4-8.1,8.1-9.1
			c5.1-1.1,10-2.9,15.1-3.7c2.1-0.4,5,0.2,6.6,1.6c11.4,9.7,22.5,19.7,33.7,29.6C59.7,428.6,59.7,429.6,59.7,430.5z M2.4,414
			c-0.6,3.8-1.2,6.1-1.2,8.4c-0.1,1.8-0.1,4.2,0.9,5.2c9.3,8.5,18.8,16.7,28.4,25.1c7.1-8,13.9-15.6,20.9-23.5
			c-9.7-8.6-19.1-16.9-28.6-25.2c-0.9-0.8-2.6-1-3.8-0.8c-4.6,1-9.2,2.2-13.7,3.6c-1,0.3-1.7,1.8-2.5,2.7c1.1,0.7,2,1.7,3.2,2
			c1.1,0.2,2.4-0.3,3.4-0.7c3-1.3,6.2-1,7.2,2.1c0.6,1.9-0.4,5.4-1.9,6.8c-2.5,2.3-5.1,0.8-7.1-1.8C6.4,416.6,4.6,415.7,2.4,414z
			 M-68.2,379.6c-6.5,0-12.5,0-18.5,0c0,6.6,0,12.9,0,19.1c6.4,0,12.4,0,18.5,0C-68.2,392.2-68.2,386.2-68.2,379.6z M-53.8,398.8
			c6.3,0,12.4,0,18.6,0c0-6.6,0-12.9,0-19c-6.4,0-12.4,0-18.6,0C-53.8,386.2-53.8,392.3-53.8,398.8z"/>
	</g>
</g>
</svg>
