<?xml version="1.0" encoding="utf-8"?>
<!-- Generator: Adobe Illustrator 19.0.0, SVG Export Plug-In . SVG Version: 6.00 Build 0)  -->
<svg version="1.1" id="Layer_1" xmlns="http://www.w3.org/2000/svg" xmlns:xlink="http://www.w3.org/1999/xlink" x="0px" y="0px"
	 viewBox="0 0 270 250" enable-background="new 0 0 270 250" xml:space="preserve">
<circle id="XMLID_27_" fill="#A4C639" cx="128.5" cy="123.4" r="116.5"/>
<g id="XMLID_1_">
	<path id="XMLID_79_" fill="#FFFFFF" d="M44.9,69.2c0.5,0,1-0.1,1.4-0.1c14.4,0,28.8,0,43.2,0c0.9,0,1.4-0.2,1.7-1.1
		c3-8.1,6.1-16.1,9.3-24.2c1.7-4.5,5.5-7,10.1-6.9c1.9,0.1,3.7,0.7,5.3,1.8c6.8,4.6,13.6,9.2,20.4,13.9c0.1,0.1,0.1,0.1,0.3,0.3
		c-1.2,1.7-2.4,3.5-3.6,5.3c-0.4-0.3-0.7-0.4-1-0.6c-6.3-4.3-12.6-8.6-18.9-12.9c-0.7-0.5-1.4-0.9-2.2-1.1c-2-0.4-3.5,0.6-4.3,2.8
		c-0.9,2.3-1.8,4.7-2.7,7c-1.9,5-3.8,9.9-5.7,14.9c-0.1,0.2-0.1,0.4-0.3,0.8c3.7,0,7.4,0,11.1,0c-2.9,37.8-5.8,75.5-8.6,113.2
		c-15.6,0-31.1,0-46.7,0c-0.2-2.5-0.4-4.9-0.6-7.4c-0.6-7.9-1.2-15.8-1.8-23.7c-0.6-7.7-1.1-15.4-1.7-23.2c-0.5-6.7-1-13.3-1.6-20
		c-0.5-5.9-0.9-11.8-1.3-17.7c-0.5-6.4-1-12.8-1.5-19.2c0-0.2-0.1-0.4-0.2-0.6C44.9,70.2,44.9,69.7,44.9,69.2z M68.2,128.1
		c3.6-9.3,7.1-18.6,10.7-28c-0.9,0.1-1.6,0.2-2.3,0.2c-3.6,0.1-6.8-1.1-9.8-2.9C63,95.2,59.1,94.8,55,96c-0.7,0.2-0.9,0.4-0.8,1.2
		c0.2,1.9,0.3,3.9,0.5,5.9c0.5,6.4,1,12.8,1.5,19.1c0.6,8,1.3,16,2,24c0.7,8.1,1.3,16.3,1.9,24.4c0.1,1.4,0.3,2.8,0.4,4.2
		c1.5,0,2.9,0,4.2,0c9.2,0,18.4,0,27.7,0c0.5,0,1.1,0.2,1.1-0.7c0.1-2.3,0.4-4.7,0.6-7c0.6-7.3,1.1-14.6,1.7-21.9
		c0.6-7.2,1.2-14.5,1.8-21.7c0.6-7.2,1.2-14.4,1.7-21.6c0.3-3.7,0.9-2.7-2.4-4.3c-2.7-1.4-5.5-2.1-8.6-1.5c-0.6,0.1-1,0.4-1.3,1
		c-3.6,9.4-7.2,18.7-10.8,28.1c-0.7,1.8-1.4,3.5-2.1,5.3C72.2,129.7,70.2,128.9,68.2,128.1z"/>
	<path id="XMLID_74_" fill="#FFFFFF" d="M210.4,130.7c-31.3,0-62.3,0-93.4,0c0.2-2,0.8-3.9,1.7-5.6c3-6.2,7.9-10.3,13.9-13.3
		c5.6-2.8,11.5-4.2,17.7-5c6.7-0.9,13.4-1,20.1-0.6c8.8,0.6,17.4,2.1,25.3,6.4c5.7,3.1,10.3,7.2,13,13.2
		C209.4,127.3,209.8,129,210.4,130.7z M180.4,111.5c-1.5,0-2.7,1.2-2.7,2.7c0,1.5,1.2,2.7,2.7,2.7c1.5,0,2.7-1.2,2.7-2.8
		C183.1,112.6,181.9,111.5,180.4,111.5z M177.7,119.7c0-0.8-0.7-1.6-1.5-1.6c-0.9,0-1.6,0.6-1.6,1.5c0,0.9,0.7,1.6,1.5,1.6
		C176.9,121.2,177.7,120.5,177.7,119.7z M190.7,120.3c0-0.8-0.7-1.6-1.5-1.6c-0.8,0-1.6,0.7-1.6,1.5c0,0.9,0.7,1.6,1.5,1.6
		C190,121.8,190.7,121.1,190.7,120.3z"/>
	<path id="XMLID_73_" fill="#FFFFFF" d="M163.8,147.3c12,0,24,0.1,36-0.1c4.3-0.1,8.3,3,7.9,8c-0.1,1.3,0,2.5,0,3.8
		c0,4.1-2.9,7-7,7.2c-0.4,0-0.8,0-1.2,0c-24.1,0-48.1,0-72.2,0c-3.9,0-6.8-2-7.5-5.5c-0.3-1.4-0.2-2.9-0.2-4.4
		c0-1.1-0.1-2.2,0.1-3.3c0.5-3.2,3.4-5.7,6.8-5.7c5.7,0,11.4,0,17,0C150.3,147.3,157.1,147.3,163.8,147.3z"/>
	<path id="XMLID_72_" fill="#FFFFFF" d="M116.9,170.5c30.8,0,61.4,0,92,0c0.7,3.7-0.6,9.6-4.6,11.6c-0.4,0.2-0.9,0.4-1.4,0.4
		c-26.6,0-53.3,0-79.9,0c-0.8,0-1.8-0.5-2.5-1.1c-2.3-1.8-3.2-4.4-3.5-7.2C116.9,172.9,116.9,171.7,116.9,170.5z"/>
	<path id="XMLID_71_" fill="#FFFFFF" d="M121.1,140.5c1.2-1.2,2.4-2.3,3.6-3.4c1.1,0.9,2.4,1.6,3.9,1.6c1.8,0,3.3-0.7,4.6-1.9
		c3.5-3.2,8.1-3.9,12.3-1.8c1,0.5,1.9,1.2,2.8,1.9c2.7,2.4,5.9,2.5,8.5,0.1c4.7-4.3,10.8-4.2,15.4,0.1c2.5,2.3,5.8,2.3,8.4-0.1
		c2.9-2.7,6.3-3.6,10.1-2.8c1.8,0.4,3.4,1.2,4.7,2.4c3.2,2.8,5.4,3,8.9,0.6c1.1,1.1,2.2,2.3,3.4,3.5c-2.2,2.1-4.8,3.1-7.8,3.1
		c-2.8,0-5.2-1.1-7.3-3c-2.8-2.6-5.9-2.6-8.7,0c-4.4,4-10.7,4-15,0c-2.7-2.5-5.9-2.5-8.7,0c-4.5,4.1-10.8,4-15.1,0
		c-2.6-2.4-5.8-2.5-8.5-0.1c-4.3,3.9-10,4.2-14.4,0.8C121.7,141.1,121.4,140.8,121.1,140.5z"/>
</g>
</svg>
