<?xml version="1.0" encoding="utf-8"?>
<!-- Generator: Adobe Illustrator 19.0.0, SVG Export Plug-In . SVG Version: 6.00 Build 0)  -->
<svg version="1.1" id="Layer_1" xmlns="http://www.w3.org/2000/svg" xmlns:xlink="http://www.w3.org/1999/xlink" x="0px" y="0px"
	 viewBox="0 0 270 250" enable-background="new 0 0 270 250" xml:space="preserve">
<circle id="XMLID_27_" fill="#A4C639" cx="128.5" cy="123.4" r="116.5"/>
<path id="XMLID_68_" fill="#FFFFFF" d="M37,112.3c1.1-2.1,2.8-2.8,5.2-2.7c6.4,0.1,12.7-0.1,19.1-0.1c1.2,0,1.9-0.5,2.5-1.4
	c5.8-7.7,11.6-15.4,17.3-23.2c3.5-4.8,8.2-7.1,14.1-7.1c16.5,0,33,0,49.5,0c6,0,10.7,2.3,14.3,7.2c5.7,7.7,11.5,15.4,17.4,23.1
	c0.5,0.7,1.5,1.3,2.3,1.3c8.3,0.1,16.7,0.1,25,0.2c8.7,0.1,15.4,3.7,19.3,11.7c1.4,3,2.5,6.4,3,9.7c0.7,4.5,0.7,9.1,0.8,13.7
	c0.1,3-1.4,4.5-4.4,4.5c-4.4,0-8.8,0-13.2,0c-0.7,0-1.3,0-2,0c-1.2,14.2-12,20-20.4,19.9c-8.9-0.2-18.8-6.7-19.6-19.7
	c-23.7,0-47.3,0-71,0c-0.9,13.3-11,19.6-19.8,19.7c-8.2,0.1-18.9-5.4-20.2-19.9c-1.7,0-3.5,0-5.3,0c-3,0-6.1-0.1-9.1,0
	c-2.4,0.1-4.1-0.6-5.2-2.7C37,135.1,37,123.7,37,112.3z M219.3,141.2c-0.4-3.6-0.6-7-1.2-10.2c-1.8-9.2-6.5-13.6-16.2-13.6
	c-51.5,0.1-103,0-154.5,0c-0.8,0-1.6,0-2.4,0c0,8.1,0,15.9,0,23.8c3.9,0,7.7-0.1,11.5,0c1.3,0,2-0.4,2.7-1.6
	c3.9-6.8,9.8-10.4,17.6-10.3c7.8,0.1,13.5,3.8,17.3,10.5c0.6,1,1.2,1.3,2.3,1.3c23.7,0,47.5,0,71.2,0c1.2,0,1.8-0.4,2.4-1.4
	c3.7-6.6,9.4-10.3,17-10.4c8.1-0.2,14,3.6,18,10.6c0.3,0.5,0.9,1.2,1.3,1.2C210.5,141.3,214.7,141.2,219.3,141.2z M116,85.9
	c-7.2,0-14.2,0-21.1,0c-3,0-5.3,1.1-7.1,3.5c-4.6,6.2-9.2,12.3-13.8,18.4c-0.4,0.5-0.7,1-1.1,1.6c14.5,0,28.8,0,43.1,0
	C116,101.6,116,93.9,116,85.9z M167.3,109.5c-0.1-0.3-0.1-0.5-0.2-0.6c-5-6.7-10-13.5-15.1-20.2c-1.5-2-3.6-2.9-6.2-2.9
	c-4.9,0-9.8,0-14.6,0c-2.3,0-4.5,0-6.9,0c0,8,0,15.7,0,23.6C138.6,109.5,152.8,109.5,167.3,109.5z M187.5,160.9
	c6.5,0,11.7-5.2,11.7-11.8c0-6.6-5.4-12-11.9-11.9c-6.5,0.1-11.7,5.3-11.8,11.8C175.5,155.7,180.9,161,187.5,160.9z M88.4,149.4
	c0.2-6.5-5-11.9-11.6-12.1c-6.1-0.2-11.8,5-11.9,11c-0.2,6.8,4.6,12.4,10.9,12.6C82.8,161.2,88.2,156.3,88.4,149.4z"/>
</svg>
