<?xml version="1.0" encoding="utf-8"?>
<!-- Generator: Adobe Illustrator 19.0.0, SVG Export Plug-In . SVG Version: 6.00 Build 0)  -->
<svg version="1.1" id="Layer_1" xmlns="http://www.w3.org/2000/svg" xmlns:xlink="http://www.w3.org/1999/xlink" x="0px" y="0px"
	 viewBox="-170 272 270 250" style="enable-background:new -170 272 270 250;" xml:space="preserve">
<style type="text/css">
	.st0{clip-path:url(#SVGID_2_);fill:#A4C639;}
	.st1{display:none;}
	.st2{display:inline;fill:#FFFFFF;}
	.st3{clip-path:url(#SVGID_4_);fill:#FFFFFF;}
	.st4{clip-path:url(#SVGID_6_);fill:#FFFFFF;}
	.st5{clip-path:url(#SVGID_8_);fill:#FFFFFF;}
</style>
<g id="XMLID_2_">
	<g>
		<defs>
			<circle id="SVGID_1_" cx="-41.5" cy="395.4" r="116.5"/>
		</defs>
		<clipPath id="SVGID_2_">
			<use xlink:href="#SVGID_1_"  style="overflow:visible;"/>
		</clipPath>
		<circle id="XMLID_27_" class="st0" cx="-41.5" cy="395.4" r="116.5"/>
	</g>
</g>
<g id="XMLID_3_" class="st1">
	<path id="XMLID_55_" class="st2" d="M2.2,321.7c1.9,0.4,3.8,0.7,5.7,1.2c6,1.5,11.3,4.3,16.1,8.3c5.5,4.6,8.5,10.7,10.5,17.4
		c1.5,5.1,1.7,10.5,1.2,15.7c-0.6,7.7-2.8,15-6.4,22c-2.6,5.1-5.6,10-9.4,14.3c-2.5,2.8-4.9,5.7-7.7,8.2c-5,4.7-10.4,8.6-16.5,11.9
		c-5.4,2.9-11,5-17,6.4c-5.2,1.2-10.5,1.5-15.9,1.3c-2.4-0.1-4.9-0.9-7.3-0.8c-6.2,0.2-12.4,0.7-18.4,2.7c-3.3,1-6.3,2.6-8.7,5.3
		c-1.7,1.9-3.5,3.6-5.3,5.3c-0.5,0.5-0.5,0.8-0.2,1.5c1.4,2.8,1,4.5-1.2,6.8c-7,7-14.1,13.9-20.9,21c-2.7,2.8-4.9,2.5-7.8,1.3
		c-3.8-1.6-6.2-4.4-7.5-8.3c-0.1-0.2-0.2-0.4-0.3-0.6c0-1.4,0-2.7,0-4.1c0.5-0.5,0.9-1.1,1.4-1.6c7.2-7.2,14.6-14.4,21.7-21.8
		c2-2.1,5.6-2.7,8-0.4c2.6-2.7,5.5-5.2,7.6-8.2c1.6-2.2,2.5-5.1,3.2-7.8c1.3-4.7,1.5-9.6,1.9-14.4c0.5-5.2-1.2-10.2-0.7-15.4
		c0.3-3.1,0.7-6.3,1-9.2c4.5,0.6,8.7,1.2,12.9,1.8c-0.2,2.2-0.7,4.8-0.6,7.3c0.1,5.9,1,11.6,4.4,16.7c3.1,4.8,7.7,7.8,13.2,9.2
		c6.7,1.7,13.4,1.1,20-0.7c6.7-1.8,12.8-4.9,18.3-9c7.4-5.5,13.5-12.1,18.1-20.1c3.2-5.5,5.5-11.4,6.7-17.7c1.3-7.1,1-14.1-2.4-20.6
		c-3.2-6.1-8.4-9.8-15.1-11.3c-7.7-1.7-15.2-0.9-22.5,2.1c-2.1,0.9-4.1,2-6.1,3.1c-1.6-3.9-3.3-7.8-5-12c1.4-0.7,3.1-1.5,4.8-2.2
		c4.7-1.9,9.5-3.2,14.5-4.1c0.7-0.1,1.4-0.2,2.1-0.3C-4.3,321.7-1.1,321.7,2.2,321.7z M-59.7,419.9c-0.9-0.9-1.9-1.9-2.8-2.9
		c-0.2,1-0.4,2.2-0.7,3.6C-61.7,420.3-60.5,420-59.7,419.9z"/>
	<path id="XMLID_54_" class="st2" d="M-44.8,321.7c2.8,1,5.8,1.7,8.4,3.1c8.1,4.4,13.1,11.2,14.9,20.3c0.2,1,0.3,2.1,0.3,3.1
		c0,0.3-0.1,0.7-0.1,0.9c-3.9,0-7.4-1.1-10.8-2.9c-7.5-4-13.2-9.7-15.8-18c-0.6-2.1-0.7-4.3-1-6.5
		C-47.5,321.7-46.1,321.7-44.8,321.7z"/>
	<path id="XMLID_53_" class="st2" d="M-78.3,346.2c1.4-13.9,15.3-23.8,23.4-23.7c0.9,8.8,5.5,15.6,11.5,21.7
		c6.1,6.1,13.1,10.4,22.1,10.5c-1.9,14.9-14.9,23.4-24,23.9C-48.3,360.5-61.1,347.7-78.3,346.2z"/>
	<path id="XMLID_52_" class="st2" d="M-51.6,379.2c-14.5,0.9-28-14-27.4-27.3C-65.7,350.7-51.4,366.4-51.6,379.2z"/>
</g>
<g id="XMLID_29_">
	<g>
		<g>
			<defs>
				<circle id="SVGID_3_" cx="-42" cy="395.5" r="116.5"/>
			</defs>
			<clipPath id="SVGID_4_">
				<use xlink:href="#SVGID_3_"  style="overflow:visible;"/>
			</clipPath>
			<path id="XMLID_49_" class="st3" d="M-70.9,299.2c1.8,0.9,2,2.6,2,4.3c0.1,6.9,0.1,13.7,0.1,20.6c0,13-0.1,25.9-0.2,38.9
				c-0.1,6.5-0.3,13-0.4,19.5c0,2.9-0.7,5.6-2.3,8c-2.2,3.5-4.7,6.6-8.5,8.6c-7,3.6-16,0.3-18.9-7c-1.4-3.7-0.4-6.9,2.1-9.8
				c2-2.3,4.6-3.2,7.4-3.6c2-0.3,4-0.3,6.3-0.5c-0.4-14-0.7-28.2-1.3-42.7c-1.6,0.6-2.9,0.9-4.2,1.5c-7.1,3.1-14.2,6.2-21.2,9.3
				c-2.5,1.1-3.5,3-3.5,5.6c0.1,8.8,0.1,17.6,0.2,26.3c0,1.7-0.3,3.4-1.1,4.9c-2.2,4.6-4.8,8.9-8.7,12.2c-3.3,2.8-7,4.6-11.3,4.8
				c-7.5,0.3-11.4-5.2-10.9-11.6c0.4-6.2,5.8-10.8,11.9-11.8c1.9-0.3,3.9-0.4,6-0.6c0-0.5,0-1.2,0-1.9c-0.1-14.7-0.2-29.3-0.3-44
				c0-2.5,0.6-3.2,3-3.7s4.9-0.9,7.4-1.5c3.5-0.8,6.6-2.5,9.7-4.3c5.2-3,9.9-6.7,14.6-10.5c6.2-4.9,12.8-8.9,20.5-11
				c0.1,0,0.3-0.1,0.4-0.2C-71.8,299.2-71.3,299.2-70.9,299.2z M-123.1,332c0,0.4,0,0.8,0,1.2c0.1,14.8,0.2,29.6,0.4,44.4
				c0,2.6-0.3,3.8-3.8,3.7c-0.1,0-0.3,0-0.4,0c-2.4,0.2-4.8,0.2-7.1,0.6c-3.3,0.7-5.6,2.8-6.5,6.2c-1.2,4.7,1.9,8.3,6.7,7.5
				c3.8-0.6,6.8-2.7,9.4-5.4c2.5-2.7,4.3-5.8,5.8-9.1c0.3-0.6,0.5-1.4,0.5-2.1c-0.1-10.6-0.2-21.1-0.3-31.7c0-1.9,0.5-2.7,2.3-3.5
				c7.7-3.3,15.5-6.5,23.2-9.8c2.9-1.2,5.7-2.5,8.6-3.7c2.4-1,4.1,0,4.2,2.5c0,0.1,0,0.3,0,0.4c0.2,5.6,0.4,11.3,0.6,16.9
				c0.3,10.1,0.6,20.3,0.8,30.4c0,0.4,0,0.8,0,1.2c0,1-0.6,1.7-1.5,1.8c-0.9,0.2-1.8,0.2-2.6,0.1c-3.1-0.2-6.1-0.2-9.1,0.8
				c-3.2,1.1-4.1,3.4-2.6,6.4c2.5,5,9,6.5,13.6,3.2c2.8-2,4.6-4.8,6.1-7.8c0.3-0.6,0.5-1.2,0.5-1.9c0.2-7.5,0.5-15,0.5-22.5
				c0.1-18.7,0.1-37.4,0.2-56.1c0-0.4,0-0.7,0-1c-0.1,0-0.2,0-0.3,0c-0.2,0.1-0.4,0.2-0.6,0.2c-6.6,2.4-12.3,6.3-17.7,10.8
				c-2.9,2.4-5.7,5-8.7,7.2c-5,3.8-10.7,6.1-16.8,7.6C-119.5,331.1-121.3,331.5-123.1,332z"/>
		</g>
	</g>
	<g>
		<g>
			<defs>
				<circle id="SVGID_5_" cx="-42" cy="395.5" r="116.5"/>
			</defs>
			<clipPath id="SVGID_6_">
				<use xlink:href="#SVGID_5_"  style="overflow:visible;"/>
			</clipPath>
			<path id="XMLID_91_" class="st4" d="M7.2,359.8c2.4-9,8.1-14.6,17.4-15.7c8.9-1,15.6,3.8,18.9,9.7c4.2,7.6,3.4,15.1-1.8,22.2
				c7.1-0.9,13.2,1.1,17.9,6.4c3.5,4,5.2,8.8,4.9,14.2c-0.7,12-13,21.6-26.2,17.1c0.7,1.3,1.4,2.4,2,3.6c0.7,1.4,1.2,2.7,1.1,4.3
				c-0.2,2.3-1.3,4-3.2,5.1c-3,1.8-6.1,3.5-9.3,5.4c1.1,1.4,1.3,3.4,3.1,4.2c1.2,0.5,2.6,0.7,3.9,1c1.9,0.5,3.9,0.9,5.7,1.7
				c1,0.4,2,1.4,2.6,2.3c1.1,1.5,1.9,3.3,2.9,5c-12.5,7.2-25,14.4-37.7,21.7c-1.1-2.5-3.1-4.6-3.8-7.4c-0.4-1.9,0.2-3.6,0.8-5.4
				c0.6-1.9,1.3-3.7,1.9-5.5c0.1-0.4,0.1-0.9-0.1-1.2c-0.6-1.1-1.2-2.2-1.9-3.4c-0.3,0.2-0.6,0.3-0.9,0.5c-2.1,1.2-4.1,2.4-6.2,3.6
				c-3.6,2.1-7.4,1-9.4-2.5c-11.5-19.8-22.9-39.7-34.3-59.6c-1.9-3.2-0.6-7.4,2.4-9.1c13.3-7.5,26.5-15.2,39.7-22.8
				c2.3-1.3,6.4-0.6,7.9,1.7C5.8,357.9,6.5,358.8,7.2,359.8z M-23.6,414.7c5.7,9.9,11.4,19.7,17,29.6c0.7,1.2,2.1,1.6,3.3,0.9
				c12.8-7.4,25.6-14.8,38.5-22.2c1.5-0.8,1.8-2.2,1-3.5c-11.3-19.6-22.6-39.2-33.8-58.8c-1-1.7-2.5-1.9-4-1
				c-12.6,7.3-25.2,14.5-37.7,21.8c-0.2,0.1-0.4,0.2-0.6,0.4c-1.1,0.8-1.4,1.9-0.7,3.1C-35,394.9-29.3,404.8-23.6,414.7z
				 M31.9,402.8c4.1,7.3,13.4,9.4,20.2,5.6c7.4-4.1,9.6-13.4,6-20.1c-4.2-7.9-13.5-9.6-19.9-6.5C30,385.9,27.7,396.2,31.9,402.8z
				 M13.5,371c4.1,7.3,13.4,9.6,20.4,5.6c7.3-4.2,9.5-13.1,5.8-20.1c-4-7.6-13.3-10.2-20.8-5.9C11.7,354.7,9.3,364,13.5,371z
				 M11,462c9.9-5.7,19.8-11.4,29.6-17.1c-0.4-1.4-1.4-2.1-2.7-2.4c-2.2-0.5-4.4-0.9-6.5-1.5c-2.3-0.5-4-1.8-5.1-3.9
				c-0.5-0.9-1-1.8-1.5-2.7c-5,2.9-9.9,5.7-14.8,8.5c0.7,1.3,1.5,2.5,2.1,3.7c0.4,0.8,0.6,1.8,0.6,2.7c0.1,2.5-1.2,4.6-1.9,6.9
				C10.2,458.2,9.2,460.1,11,462z M25.5,391.8c0.7-3.5,2.1-6.4,4.2-9c-3.4,0.7-6.6,0.2-9.9-0.8C21.8,385.3,23.6,388.4,25.5,391.8z"
				/>
		</g>
	</g>
	<g>
		<g>
			<defs>
				<circle id="SVGID_7_" cx="-42" cy="395.5" r="116.5"/>
			</defs>
			<clipPath id="SVGID_8_">
				<use xlink:href="#SVGID_7_"  style="overflow:visible;"/>
			</clipPath>
			<path id="XMLID_100_" class="st5" d="M-85.3,410c5,0.3,9.7-1,14-3.6c4.6-2.7,5.9-2.8,8.7,1.4c6.5,9.5,13,19.2,19.3,28.8
				c7.6,11.5,15.2,23,22.7,34.6c2.7,4.1,5.1,8.4,7.5,12.7c1.8,3.2-0.4,5.8-1.9,8.3c-4.9,8.1-10.1,15.9-15.2,23.9
				c-5.5,8.7-10.9,17.4-16.3,26.2c-1.8,2.9-3.1,6.1-5.1,8.9c-3.5,5-7.8,7.8-14.5,7.1c-5.3-0.5-8.3-3.2-11-7.1
				c-7.7-11.3-15.5-22.6-23.2-33.9c-9.1-13.5-17.9-27.2-26.9-40.8c-1.3-1.9-2.7-3.9-3.4-6c-0.5-1.3-0.3-3.3,0.4-4.5
				c4.2-6.7,8.5-13.2,12.9-19.8c4.3-6.4,8.6-12.7,13-19c3.6-5.1,7-10.3,11.1-14.9c1.6-1.8,4.8-2.1,7.3-3
				C-85.5,409.5-85.4,409.8-85.3,410z M-50.1,539.6c2.3-3.4,4.2-6.2,6-9c4.5-7,9.1-14,13.6-21.1c4.6-7.4,9.2-14.8,13.7-22.2
				c0.3-0.5,0.3-1.6-0.1-2.1c-1.9-3.4-3.8-6.8-5.9-10c-8.1-12.6-16.3-25.2-24.5-37.7c-5.9-9.1-11.9-18.1-18.2-27.6
				c-1.5,1.8-2.8,3.2-4,4.7c-10.6,13.9-21.2,27.8-31.7,41.8c-0.6,0.8-0.6,2.6-0.1,3.4c8,12.7,16.1,25.3,24.2,38
				c6.9,10.8,13.9,21.6,20.9,32.4C-54.3,533.1-52.4,536.1-50.1,539.6z M-107.4,499.3c2.1,3.2,3.7,5.7,5.4,8.1
				c5.3,7.5,10.5,15,15.9,22.4c1.9,2.7,4.2,3.3,7,1.7c3.7-2.1,7.2-4.6,10.5-7.2c1.5-1.1,2.1-2.8,0.8-4.7c-0.6-0.9-0.9-2.1-1.4-3
				c-3.8-6.1-7.6-12.2-11.5-18.3c-2.1-3.3-4.4-6.6-6.8-10.1C-93,493.9-98.3,499.5-107.4,499.3z M-125.2,472c0.4,1.2,0.4,1.7,0.7,2
				c4.4,6.4,8.7,12.9,13.4,19.1c2.6,3.5,5,3.7,9.1,1.7c4.2-2,7.3-5.2,10-8.9c1.3-1.7,0.8-3.2-0.2-4.8c-2.5-3.9-4.9-7.9-7.5-11.7
				c-1.9-2.8-3.9-5.5-6.1-8.5C-110.9,467.6-116.8,471.8-125.2,472z M-63.2,526c-3,2.3-5.6,4.7-8.6,6.5c-2.9,1.8-6.2,3-9.8,4.6
				c3.3,4.8,6.4,9.4,9.6,13.9c3.3,4.7,8.2,5.4,12.6,1.8c2.3-1.9,4.1-4.5,6.4-6.5c2.5-2.2,2-4,0.2-6.3
				C-56.5,535.3-59.8,530.6-63.2,526z M-87.1,412.6c-0.3-0.3-0.6-0.5-1-0.8c-13.6,18.5-27.6,36.8-40.1,56.2c2.3,1.6,3.9,1.6,5.1-0.3
				c4.7-7.1,9.3-14.3,14-21.4c4.7-7,9.5-13.9,14.1-21C-92.2,421.2-89.7,416.9-87.1,412.6z M-118.5,466.7c5.5-2.8,36-50.7,35.5-55.6
				C-95.1,430.1-106.8,448.4-118.5,466.7z M-73.1,411.5c-0.4-0.3-0.8-0.6-1.2-0.9c-12.8,14.5-22.3,31.3-32.7,47.5
				C-94.8,443.2-83.7,427.6-73.1,411.5z"/>
		</g>
	</g>
</g>
</svg>
