<?xml version="1.0" encoding="utf-8"?>
<!-- Generator: Adobe Illustrator 19.0.0, SVG Export Plug-In . SVG Version: 6.00 Build 0)  -->
<svg version="1.1" id="Layer_1" xmlns="http://www.w3.org/2000/svg" xmlns:xlink="http://www.w3.org/1999/xlink" x="0px" y="0px"
	 viewBox="0 0 270 250" enable-background="new 0 0 270 250" xml:space="preserve">
<circle id="XMLID_27_" fill="#A4C639" cx="128.5" cy="123.4" r="116.5"/>
<path id="XMLID_70_" fill="#FFFFFF" d="M130.2,154.1c-22.3,0-40.5-18.1-40.5-40.4c0-22.2,18.3-40.4,40.5-40.4
	c22.3,0.1,40.3,18,40.4,40.3C170.7,135.9,152.5,154.1,130.2,154.1z M131.8,145.6c0-1.8,0.1-3.5,0-5.1c-0.1-1.3,0.4-1.7,1.7-1.9
	c3-0.3,6-1.1,8.5-2.9c5.1-3.7,6.1-9,5.6-14.8c-0.4-4.5-3-7.6-7.1-9.3c-2.4-1-4.9-1.8-7.4-2.6c-0.9-0.3-1.2-0.7-1.2-1.6
	c0-4.9,0-9.8,0-14.6c0-0.4,0.1-0.8,0.1-1.2c5.3,0.3,7.7,3.4,8.4,8.2c2,0,4,0,6,0c-0.1-2.8-0.7-5.3-2.3-7.6
	c-2.9-4.2-7.4-5.6-12.4-6.1c0-1.6,0-3,0-4.5c-1.2,0-2.1,0-3.2,0c0,1.6,0,3,0,4.5c-0.8,0.1-1.5,0.3-2.2,0.3
	c-7,0.3-12.5,6.8-12.6,13.3c-0.1,4.4,1.1,8.1,4.9,10.8c2.6,1.8,5.5,2.8,8.6,3.5c1.1,0.2,1.5,0.6,1.5,1.8c-0.1,5.4,0,10.9,0,16.3
	c0,0.4-0.1,0.9-0.1,1.3c-4.5,0.1-7.8-2.4-8.9-6.5c-0.3-1.2-0.3-2.5-0.6-3.7c-0.1-0.4-0.6-1-0.9-1c-1.7-0.1-3.5,0-5.4,0
	c0.1,3.7,0.4,7.1,2.4,10.1c3.1,4.9,8.2,6.1,13.6,6.7c0,2.3,0,4.4,0,6.6C129.7,145.6,130.7,145.6,131.8,145.6z"/>
<path id="XMLID_69_" fill="#FFFFFF" d="M130.2,34.7c25.7,18.7,51.3,37.3,77.2,56.1c-0.7,0.1-1.1,0.1-1.6,0.1c-5.2,0-10.4,0-15.6,0
	c-0.8,0-1.7-0.3-2.3-0.8c-18.8-13.6-37.6-27.3-56.4-41c-1-0.7-1.7-0.8-2.7,0c-18.8,13.7-37.6,27.4-56.4,41c-0.7,0.5-1.6,0.8-2.5,0.8
	c-5.5,0.1-11.1,0-16.8-0.3C78.8,72,104.5,53.4,130.2,34.7z"/>
<path id="XMLID_68_" fill="#FFFFFF" d="M204.4,176.5c0,3.9,0,7.7,0,11.6c-49.5,0-98.9,0-148.4,0c0-3.8,0-7.7,0-11.6
	C105.4,176.5,154.8,176.5,204.4,176.5z"/>
<path id="XMLID_67_" fill="#FFFFFF" d="M187.9,158.1c0,3.8,0,7.7,0,11.6c-38.5,0-77,0-115.5,0c0-3.9,0-7.7,0-11.6
	C110.9,158.1,149.4,158.1,187.9,158.1z"/>
<path id="XMLID_62_" fill="#FFFFFF" d="M133.9,133.7c0-6.1,0-12.2,0-18.2c6.5,1.1,9.5,4.2,9.4,9.4
	C143.2,130.1,139.9,133.3,133.9,133.7z"/>
<path id="XMLID_61_" fill="#FFFFFF" d="M130.5,91.7c0,5.5,0,10.9,0,16.3c-5.3-0.5-8.8-3.9-8.6-8.3C122.1,94.9,125.6,91.6,130.5,91.7
	z"/>
</svg>
