<?xml version="1.0" encoding="utf-8"?>
<!-- Generator: Adobe Illustrator 19.0.0, SVG Export Plug-In . SVG Version: 6.00 Build 0)  -->
<svg version="1.1" id="Layer_1" xmlns="http://www.w3.org/2000/svg" xmlns:xlink="http://www.w3.org/1999/xlink" x="0px" y="0px"
	 viewBox="0 0 270 250" enable-background="new 0 0 270 250" xml:space="preserve">
<g id="XMLID_29_">
	<circle id="XMLID_27_" fill="#A4C639" cx="128.5" cy="123.4" r="116.5"/>
	<g id="XMLID_28_">
		<path id="XMLID_100_" fill="#FFFFFF" d="M37.8,123.6c2.4-4.6,6.7-6.9,11.1-9c10.8-5.1,22.2-8.1,33.8-10.5
			c13.3-2.8,26.8-4.7,40.5-4c3,0.1,6.1,0.7,9,1.5c3.5,0.9,5.7,3,6.4,7c2.8,15,5.9,30,8.7,45.1c2.6,13.4-0.9,25.4-8.8,36.2
			c-7.8,10.8-18.2,18.1-30.6,22.6c-2.5,0.9-5.6,0.6-8.4,0.5c-14.7-0.9-28-5.5-39-15.6c-8-7.3-12.4-16.4-14.3-26.9
			c-2.5-14.1-5.4-28-8.1-42.1c-0.1-0.3-0.3-0.6-0.4-0.8C37.8,126.1,37.8,124.8,37.8,123.6z M119.9,106.6
			c-20.3,0.5-38.2,3.8-55.8,9.4c-6.2,2-12.3,4.2-17.8,8c-1.3,0.9-1.7,1.8-1.4,3.4c2.9,14.4,5.7,28.8,8.4,43.2
			c1.6,8.4,5.4,15.5,11.6,21.3c9,8.4,19.9,12.5,31.8,13.8c3.2,0.4,6.9,0.8,9.8-0.3c10.4-3.8,19.1-10.1,25.8-19.1
			c6.6-8.8,10.3-18.6,8.3-29.8c-2.8-15.6-5.9-31.1-9-46.7c-0.1-0.7-1.2-1.7-2-1.8C125.9,107.3,122,106.9,119.9,106.6z"/>
		<path id="XMLID_99_" fill="#FFFFFF" d="M205.5,118.8c-1.5,5.1-2.3,10.5-4.6,15.2c-6.8,14.2-18.8,22.8-33.3,28.2
			c-1.7,0.6-3.4,1.1-5.2,1.6c-2.5,0.7-4.4-0.1-5-2.1c-0.6-2,0.6-3.9,3.2-4.6c7.7-2.1,14.9-5.4,21.2-10.4
			c10.7-8.5,16.9-19.3,16.7-33.5c-0.2-14.2-0.1-28.3,0-42.5c0-2.5-0.8-3.9-3.1-4.4c-6.4-1.4-12.8-3.2-19.3-4.1
			c-13.1-1.7-26.4-1.6-39.5-0.5c-7.7,0.6-15.3,1.6-22.6,4.2c-3.9,1.4-3.9,1.4-3.9,5.4c0,5.4,0,10.7,0,16.1c0,3-1.3,4.6-3.6,4.5
			c-2.2-0.1-3.4-1.6-3.4-4.4c0-6.3,0.1-12.6,0-18.9c0-3.1,1.3-5.3,3.8-6.9c5-3.1,10.6-4.4,16.2-5.2c6.8-1,13.7-1.6,20.6-2.4
			c7.1,0,14.2,0,21.3,0c4.8,0.5,9.7,0.9,14.5,1.4c6.7,0.8,13.4,2,19.8,4.7c2.9,1.3,5.2,3.1,6.4,6.1
			C205.5,83.9,205.5,101.4,205.5,118.8z"/>
		<path id="XMLID_97_" fill="#FFFFFF" d="M174.9,128.4c-0.8-11.2-9.7-19.6-20.8-20c-1.2,0-2.4,0-3.5,0c-2.4,0-3.7-1.2-3.8-3.2
			c-0.1-2,1.2-3.8,3.5-3.6c4.2,0.2,8.6,0.4,12.5,1.7c12.1,3.8,19.6,14.7,19.4,27.4c0,2.9-0.7,3.7-3.6,4.3c-2.3,0.5-4.6,0.9-6.9,1.3
			c-1.8,0.3-3.2-0.2-4.5-1.4c-3.8-3.5-8.1-6.2-13.5-6.7c-2.2-0.2-3.3-2-2.9-4.1c0.3-1.9,1.9-3.1,4.2-2.8c5.4,0.6,10.2,2.7,14.3,6.2
			C171,129.1,172.7,129.5,174.9,128.4z"/>
		<path id="XMLID_96_" fill="#FFFFFF" d="M146,84c0,2.1-1.5,3.9-3.5,3.5c-5.3-0.9-10.6-2-15.8-3.4c-2.3-0.6-3-2.8-2.1-4.7
			c0.8-1.9,2.6-2.3,4.9-1.7c4.3,1.1,8.7,2,13,2.8C144.7,81,146,82,146,84z"/>
		<path id="XMLID_95_" fill="#FFFFFF" d="M165.8,87.6c-1.6-0.2-3.1-1-3.3-3.1c-0.2-2,0.8-3.4,2.7-3.8c4.9-1.2,9.9-2.2,14.8-3.3
			c1.8-0.4,3.3,0.4,3.9,2.2c0.7,1.9,0.1,3.7-1.8,4.2c-4.2,1.3-8.6,2.3-12.9,3.3C168.2,87.4,167.1,87.4,165.8,87.6z"/>
		<path id="XMLID_87_" fill="#FFFFFF" d="M96.6,193c-14.3,0-25.8-9.3-28.5-23.3c-0.6-2.9,0.1-4.1,2.9-5.3c0.6-0.3,1.3-0.5,2-0.8
			c4.1-2.1,7.7-2.1,12.1,0.4c9.1,5.1,18.2,2.8,24.6-5.6c2.2-2.9,4.5-4.1,7.9-3.8c1.6,0.1,3.3,0,4.9,0c2.4-0.1,3.5,1.3,4,3.5
			c2.8,13-3.9,26.5-16.1,32C105.9,192.1,101.4,193,96.6,193z M75.6,170.3c2.5,11.5,14.9,18.4,27.4,15.1
			c13.7-3.6,18.5-15.7,16.6-23.8c-2.1-0.3-3.6,0.2-5.1,2c-8.5,10.5-21,13-33.2,6.6C79.2,169,77.6,168.9,75.6,170.3z"/>
		<path id="XMLID_86_" fill="#FFFFFF" d="M82.6,132.9c-0.6,0.5-1.5,1.8-2.8,2.4c-4.2,2-8.6,3.7-12.8,5.6c-1.9,0.8-3.4,0.6-4.6-1
			c-1.1-1.4-0.9-3.8,0.8-4.7c3.6-2,7.4-3.7,11.1-5.4c1.3-0.6,2.8-1,4.3-1.3C80.8,128.1,82.7,129.8,82.6,132.9z"/>
		<path id="XMLID_85_" fill="#FFFFFF" d="M110.1,123.4c2.1,0.3,4.9,0.5,7.7,1.1c2.3,0.5,3.2,2,2.8,4.1c-0.4,1.9-1.8,2.7-4.1,2.6
			c-4.6-0.2-9.2-0.3-13.8-0.3c-2.4,0-4-1.1-4.1-3.3c-0.1-2.1,1.1-3.4,3.5-3.6C104.5,123.8,106.9,123.6,110.1,123.4z"/>
	</g>
</g>
</svg>
